<svg id="svg" version="1.1" xmlns="http://www.w3.org/2000/svg" xmlns:xlink="http://www.w3.org/1999/xlink" width="400" height="196.79999999999998" viewBox="0, 0, 400,196.79999999999998"><g id="svgg"><path id="path0" d="M0.443 41.075 C 0.151 41.193,0.110 41.732,0.394 41.732 C 0.502 41.732,0.591 41.909,0.591 42.126 C 0.591 42.343,0.663 42.520,0.751 42.520 C 0.895 42.520,1.466 43.451,2.047 44.634 C 2.166 44.877,2.330 45.076,2.411 45.077 C 2.493 45.078,2.559 45.195,2.559 45.337 C 2.559 45.479,2.714 45.767,2.904 45.977 C 3.093 46.187,3.374 46.602,3.527 46.900 C 3.681 47.197,3.880 47.441,3.970 47.441 C 4.060 47.441,4.134 47.578,4.134 47.745 C 4.134 48.054,4.287 48.278,5.069 49.115 C 5.313 49.375,5.512 49.685,5.512 49.802 C 5.512 49.920,5.689 50.207,5.906 50.439 C 6.122 50.671,6.299 50.978,6.299 51.120 C 6.299 51.262,6.388 51.378,6.496 51.378 C 6.604 51.378,6.693 51.494,6.693 51.636 C 6.693 51.778,6.870 52.084,7.087 52.317 C 7.303 52.549,7.480 52.856,7.480 52.999 C 7.480 53.143,7.657 53.387,7.874 53.543 C 8.091 53.699,8.268 53.965,8.268 54.134 C 8.268 54.303,8.445 54.568,8.661 54.724 C 8.878 54.880,9.055 55.149,9.055 55.321 C 9.055 55.494,9.210 55.806,9.400 56.016 C 9.589 56.226,9.870 56.641,10.023 56.939 C 10.177 57.237,10.376 57.480,10.466 57.480 C 10.556 57.480,10.630 57.591,10.630 57.726 C 10.631 57.862,10.896 58.282,11.220 58.661 C 11.545 59.040,11.810 59.418,11.811 59.500 C 11.811 59.582,12.077 59.927,12.402 60.267 C 12.726 60.607,12.992 60.964,12.992 61.059 C 12.992 61.155,13.302 61.544,13.681 61.923 C 14.060 62.302,14.370 62.693,14.370 62.792 C 14.370 62.987,17.032 65.748,17.220 65.748 C 17.391 65.748,19.094 67.486,19.096 67.662 C 19.097 67.746,19.429 68.036,19.834 68.307 C 20.239 68.578,20.774 68.999,21.023 69.242 C 21.271 69.486,21.545 69.685,21.632 69.685 C 21.718 69.685,22.047 69.906,22.361 70.177 C 22.676 70.447,23.044 70.669,23.179 70.669 C 23.314 70.669,23.425 70.747,23.425 70.842 C 23.425 70.937,23.691 71.125,24.016 71.260 C 24.341 71.394,24.606 71.582,24.606 71.677 C 24.606 71.773,24.783 71.850,25.000 71.850 C 25.217 71.850,25.394 71.939,25.394 72.047 C 25.394 72.156,25.519 72.244,25.673 72.244 C 25.826 72.244,25.981 72.311,26.017 72.392 C 26.053 72.473,26.526 72.748,27.067 73.004 C 27.608 73.259,28.205 73.547,28.393 73.644 C 28.581 73.740,28.869 73.819,29.033 73.819 C 29.197 73.819,29.331 73.907,29.331 74.016 C 29.331 74.124,29.552 74.213,29.823 74.213 C 30.094 74.213,30.315 74.301,30.315 74.409 C 30.315 74.518,30.581 74.606,30.906 74.606 C 31.230 74.606,31.496 74.695,31.496 74.803 C 31.496 74.911,31.762 75.000,32.087 75.000 C 32.411 75.000,32.677 75.089,32.677 75.197 C 32.677 75.305,32.943 75.394,33.268 75.394 C 33.593 75.394,33.858 75.482,33.858 75.591 C 33.858 75.699,34.119 75.787,34.437 75.787 C 34.756 75.787,35.071 75.876,35.138 75.984 C 35.205 76.093,35.515 76.181,35.827 76.181 C 36.139 76.181,36.449 76.270,36.516 76.378 C 36.583 76.486,36.893 76.575,37.205 76.575 C 37.517 76.575,37.827 76.663,37.894 76.772 C 37.961 76.880,38.320 76.969,38.693 76.969 C 39.065 76.969,39.370 77.057,39.370 77.165 C 39.370 77.274,39.724 77.362,40.157 77.362 C 40.591 77.362,40.945 77.451,40.945 77.559 C 40.945 77.667,41.255 77.756,41.634 77.756 C 42.013 77.756,42.323 77.844,42.323 77.953 C 42.323 78.061,42.677 78.150,43.110 78.150 C 43.543 78.150,43.898 78.238,43.898 78.346 C 43.898 78.455,44.252 78.543,44.685 78.543 C 45.118 78.543,45.472 78.632,45.472 78.740 C 45.472 78.848,45.777 78.937,46.150 78.937 C 46.522 78.937,46.882 79.026,46.949 79.134 C 47.016 79.242,47.375 79.331,47.748 79.331 C 48.120 79.331,48.425 79.419,48.425 79.528 C 48.425 79.636,48.713 79.727,49.065 79.731 C 49.417 79.734,49.877 79.867,50.087 80.026 C 50.297 80.185,50.757 80.315,51.109 80.315 C 51.461 80.315,51.797 80.394,51.857 80.490 C 51.916 80.586,52.254 80.713,52.606 80.771 C 52.959 80.829,53.647 80.978,54.134 81.102 C 54.621 81.226,55.308 81.375,55.661 81.434 C 56.014 81.492,56.352 81.618,56.411 81.715 C 56.471 81.811,56.819 81.890,57.185 81.890 C 57.551 81.890,57.906 81.978,57.972 82.087 C 58.039 82.195,58.394 82.283,58.760 82.283 C 59.126 82.283,59.474 82.362,59.534 82.459 C 59.593 82.555,59.953 82.688,60.333 82.754 C 60.713 82.820,61.334 82.928,61.714 82.994 C 62.094 83.060,62.454 83.193,62.513 83.289 C 62.573 83.386,62.921 83.465,63.287 83.465 C 63.654 83.465,64.008 83.553,64.075 83.661 C 64.142 83.770,64.496 83.858,64.862 83.858 C 65.228 83.858,65.583 83.947,65.650 84.055 C 65.717 84.163,66.071 84.252,66.437 84.252 C 66.803 84.252,67.157 84.341,67.224 84.449 C 67.291 84.557,67.651 84.646,68.023 84.646 C 68.396 84.646,68.701 84.734,68.701 84.843 C 68.701 84.951,69.055 85.039,69.488 85.039 C 69.921 85.039,70.276 85.128,70.276 85.236 C 70.276 85.344,70.630 85.433,71.063 85.433 C 71.496 85.433,71.850 85.522,71.850 85.630 C 71.850 85.738,72.155 85.827,72.528 85.827 C 72.900 85.827,73.260 85.915,73.327 86.024 C 73.394 86.132,73.748 86.220,74.114 86.220 C 74.480 86.220,74.835 86.309,74.902 86.417 C 74.968 86.526,75.328 86.614,75.701 86.614 C 76.073 86.614,76.378 86.703,76.378 86.811 C 76.378 86.919,76.732 87.008,77.165 87.008 C 77.598 87.008,77.953 87.096,77.953 87.205 C 77.953 87.313,78.307 87.402,78.740 87.402 C 79.173 87.402,79.528 87.490,79.528 87.598 C 79.528 87.707,79.882 87.795,80.315 87.795 C 80.748 87.795,81.102 87.884,81.102 87.992 C 81.102 88.100,81.407 88.189,81.780 88.189 C 82.152 88.189,82.512 88.278,82.579 88.386 C 82.646 88.494,83.000 88.583,83.366 88.583 C 83.732 88.583,84.081 88.661,84.140 88.758 C 84.242 88.923,84.740 89.039,86.467 89.300 C 86.873 89.361,87.205 89.491,87.205 89.588 C 87.205 89.685,87.515 89.764,87.894 89.764 C 88.273 89.764,88.583 89.852,88.583 89.961 C 88.583 90.069,88.937 90.157,89.370 90.157 C 89.803 90.157,90.157 90.246,90.157 90.354 C 90.157 90.463,90.462 90.551,90.835 90.551 C 91.207 90.551,91.567 90.640,91.634 90.748 C 91.701 90.856,92.060 90.945,92.433 90.945 C 92.805 90.945,93.110 91.033,93.110 91.142 C 93.110 91.250,93.465 91.339,93.898 91.339 C 94.331 91.339,94.685 91.427,94.685 91.535 C 94.685 91.644,95.039 91.732,95.472 91.732 C 95.906 91.732,96.260 91.821,96.260 91.929 C 96.260 92.037,96.576 92.126,96.963 92.126 C 97.350 92.126,97.799 92.259,97.961 92.421 C 98.124 92.584,98.511 92.717,98.821 92.717 C 99.132 92.717,99.441 92.805,99.508 92.913 C 99.575 93.022,99.929 93.110,100.295 93.110 C 100.661 93.110,101.016 93.199,101.083 93.307 C 101.150 93.415,101.392 93.504,101.622 93.504 C 102.065 93.504,103.218 93.831,103.787 94.119 C 103.975 94.214,104.390 94.291,104.710 94.291 C 105.030 94.291,105.346 94.380,105.413 94.488 C 105.480 94.596,105.884 94.685,106.311 94.685 C 106.738 94.685,107.087 94.774,107.087 94.882 C 107.087 94.990,107.347 95.079,107.666 95.079 C 107.984 95.079,108.293 95.158,108.353 95.255 C 108.413 95.352,108.795 95.481,109.202 95.543 C 110.964 95.809,111.417 95.920,111.417 96.085 C 111.417 96.181,111.722 96.260,112.095 96.260 C 112.467 96.260,112.827 96.348,112.894 96.457 C 112.961 96.565,113.320 96.654,113.693 96.654 C 114.065 96.654,114.370 96.742,114.370 96.850 C 114.370 96.959,114.675 97.047,115.047 97.047 C 115.420 97.047,115.780 97.136,115.846 97.244 C 115.913 97.352,116.255 97.441,116.606 97.441 C 116.957 97.441,117.328 97.525,117.431 97.628 C 117.535 97.731,117.951 97.838,118.357 97.865 C 118.762 97.893,119.094 97.986,119.094 98.072 C 119.094 98.158,119.360 98.228,119.685 98.228 C 120.010 98.228,120.276 98.317,120.276 98.425 C 120.276 98.533,120.625 98.622,121.051 98.622 C 121.478 98.622,121.882 98.711,121.949 98.819 C 122.016 98.927,122.375 99.016,122.748 99.016 C 123.120 99.016,123.425 99.104,123.425 99.213 C 123.425 99.321,123.686 99.409,124.004 99.409 C 124.323 99.409,124.638 99.498,124.705 99.606 C 124.772 99.715,125.131 99.803,125.504 99.803 C 125.876 99.803,126.181 99.892,126.181 100.000 C 126.181 100.108,126.535 100.197,126.969 100.197 C 127.402 100.197,127.756 100.285,127.756 100.394 C 127.756 100.502,128.066 100.591,128.445 100.591 C 128.824 100.591,129.134 100.679,129.134 100.787 C 129.134 100.896,129.488 100.984,129.921 100.984 C 130.354 100.984,130.709 101.073,130.709 101.181 C 130.709 101.289,131.063 101.378,131.496 101.378 C 131.929 101.378,132.283 101.467,132.283 101.575 C 132.283 101.683,132.549 101.772,132.874 101.772 C 133.199 101.772,133.465 101.860,133.465 101.969 C 133.465 102.077,133.819 102.165,134.252 102.165 C 134.685 102.165,135.039 102.254,135.039 102.362 C 135.039 102.470,135.344 102.559,135.717 102.559 C 136.089 102.559,136.449 102.648,136.516 102.756 C 136.583 102.864,136.942 102.953,137.315 102.953 C 137.687 102.953,137.992 103.041,137.992 103.150 C 137.992 103.258,138.297 103.346,138.669 103.346 C 139.042 103.346,139.402 103.435,139.469 103.543 C 139.535 103.652,139.845 103.740,140.157 103.740 C 140.470 103.740,140.780 103.829,140.846 103.937 C 140.913 104.045,141.263 104.134,141.624 104.134 C 142.000 104.134,142.325 104.250,142.385 104.404 C 142.442 104.553,142.739 104.725,143.045 104.786 C 144.865 105.149,147.714 105.931,147.923 106.125 C 148.026 106.221,148.353 106.299,148.650 106.299 C 148.947 106.299,149.244 106.388,149.311 106.496 C 149.378 106.604,149.737 106.693,150.110 106.693 C 150.483 106.693,150.787 106.781,150.787 106.890 C 150.787 106.998,151.097 107.087,151.476 107.087 C 151.855 107.087,152.165 107.175,152.165 107.283 C 152.165 107.392,152.475 107.480,152.854 107.480 C 153.233 107.480,153.543 107.569,153.543 107.677 C 153.543 107.785,153.744 107.874,153.989 107.874 C 154.234 107.874,154.919 108.051,155.512 108.268 C 156.104 108.484,156.789 108.661,157.035 108.661 C 157.280 108.661,157.480 108.750,157.480 108.858 C 157.480 108.967,157.746 109.055,158.071 109.055 C 158.396 109.055,158.661 109.144,158.661 109.252 C 158.661 109.360,158.927 109.449,159.252 109.449 C 159.577 109.449,159.843 109.537,159.843 109.646 C 159.843 109.754,160.108 109.843,160.433 109.843 C 160.758 109.843,161.024 109.931,161.024 110.039 C 161.024 110.148,161.289 110.236,161.614 110.236 C 161.939 110.236,162.205 110.325,162.205 110.433 C 162.205 110.541,162.421 110.630,162.685 110.630 C 162.950 110.630,163.220 110.719,163.287 110.827 C 163.354 110.935,163.581 111.024,163.791 111.024 C 164.001 111.024,164.173 111.112,164.173 111.220 C 164.173 111.329,164.315 111.417,164.487 111.417 C 164.809 111.417,165.991 112.165,166.109 112.444 C 166.145 112.529,166.300 112.598,166.453 112.598 C 166.607 112.598,166.732 112.687,166.732 112.795 C 166.732 112.904,166.868 112.992,167.034 112.992 C 167.402 112.992,168.499 114.074,168.882 114.814 C 169.035 115.111,169.235 115.354,169.325 115.354 C 169.415 115.354,169.488 115.471,169.488 115.612 C 169.488 115.754,169.665 116.061,169.882 116.293 C 170.098 116.526,170.276 116.790,170.276 116.882 C 170.276 117.174,170.762 118.107,170.915 118.109 C 170.997 118.110,171.063 118.240,171.063 118.400 C 171.063 118.559,171.240 119.004,171.457 119.390 C 171.673 119.775,171.850 120.221,171.850 120.380 C 171.850 120.539,171.939 120.669,172.047 120.669 C 172.156 120.669,172.244 120.846,172.244 121.063 C 172.244 121.280,172.314 121.457,172.399 121.457 C 172.483 121.457,172.713 121.727,172.908 122.058 C 173.413 122.913,174.475 122.843,174.572 121.949 C 174.608 121.624,174.718 121.274,174.818 121.171 C 174.918 121.068,175.000 120.741,175.000 120.445 C 175.000 120.148,175.089 119.850,175.197 119.783 C 175.305 119.717,175.394 119.451,175.394 119.193 C 175.394 118.935,175.482 118.669,175.591 118.602 C 175.699 118.535,175.787 118.309,175.787 118.099 C 175.787 117.888,175.860 117.717,175.949 117.717 C 176.037 117.717,176.231 117.274,176.378 116.732 C 176.525 116.191,176.719 115.748,176.807 115.748 C 176.896 115.748,176.969 115.632,176.969 115.490 C 176.969 115.348,177.146 115.042,177.362 114.809 C 177.579 114.577,177.756 114.270,177.756 114.126 C 177.756 113.983,177.933 113.739,178.150 113.583 C 178.366 113.427,178.543 113.141,178.543 112.949 C 178.543 112.756,178.632 112.598,178.740 112.598 C 179.098 112.598,178.951 111.310,178.543 110.872 C 178.327 110.640,178.150 110.313,178.150 110.146 C 178.150 109.979,178.061 109.843,177.953 109.843 C 177.844 109.843,177.756 109.665,177.756 109.449 C 177.756 109.232,177.667 109.055,177.559 109.055 C 177.451 109.055,177.362 108.898,177.362 108.705 C 177.362 108.512,177.185 108.227,176.969 108.071 C 176.752 107.915,176.575 107.649,176.575 107.480 C 176.575 107.312,176.398 107.046,176.181 106.890 C 175.965 106.734,175.787 106.498,175.787 106.367 C 175.787 106.031,173.656 103.937,173.314 103.937 C 173.159 103.937,173.031 103.848,173.031 103.740 C 173.031 103.632,172.899 103.543,172.736 103.543 C 172.574 103.543,172.441 103.455,172.441 103.346 C 172.441 103.238,172.273 103.150,172.068 103.150 C 171.863 103.150,171.645 103.017,171.582 102.854 C 171.520 102.692,171.332 102.559,171.165 102.559 C 170.998 102.559,170.707 102.478,170.519 102.378 C 169.682 101.936,168.285 101.378,168.014 101.378 C 167.850 101.378,167.717 101.289,167.717 101.181 C 167.717 101.073,167.538 100.984,167.320 100.984 C 167.102 100.984,166.748 100.896,166.533 100.787 C 166.318 100.679,165.966 100.502,165.751 100.394 C 165.536 100.285,165.181 100.197,164.963 100.197 C 164.745 100.197,164.567 100.108,164.567 100.000 C 164.567 99.892,164.389 99.803,164.171 99.803 C 163.953 99.803,163.598 99.715,163.383 99.606 C 163.168 99.498,162.816 99.321,162.601 99.213 C 162.386 99.104,162.032 99.016,161.814 99.016 C 161.596 99.016,161.417 98.927,161.417 98.819 C 161.417 98.711,161.152 98.622,160.827 98.622 C 160.502 98.622,160.236 98.533,160.236 98.425 C 160.236 98.317,160.058 98.228,159.840 98.228 C 159.622 98.228,159.268 98.140,159.052 98.031 C 158.837 97.923,158.485 97.746,158.270 97.638 C 158.055 97.530,157.706 97.441,157.495 97.441 C 157.283 97.441,157.055 97.352,156.988 97.244 C 156.921 97.136,156.656 97.047,156.398 97.047 C 156.140 97.047,155.874 96.959,155.807 96.850 C 155.740 96.742,155.513 96.654,155.303 96.654 C 155.093 96.654,154.921 96.565,154.921 96.457 C 154.921 96.348,154.656 96.260,154.331 96.260 C 154.006 96.260,153.740 96.171,153.740 96.063 C 153.740 95.955,153.474 95.866,153.150 95.866 C 152.825 95.866,152.559 95.778,152.559 95.669 C 152.559 95.561,152.381 95.472,152.163 95.472 C 151.945 95.472,151.590 95.384,151.375 95.276 C 151.160 95.167,150.808 94.990,150.593 94.882 C 150.378 94.774,150.024 94.685,149.806 94.685 C 149.588 94.685,149.409 94.596,149.409 94.488 C 149.409 94.380,149.144 94.291,148.819 94.291 C 148.494 94.291,148.228 94.203,148.228 94.094 C 148.228 93.986,148.012 93.898,147.748 93.898 C 147.484 93.898,147.213 93.809,147.146 93.701 C 147.079 93.593,146.808 93.504,146.544 93.504 C 146.279 93.504,146.063 93.415,146.063 93.307 C 146.063 93.199,145.797 93.110,145.472 93.110 C 145.148 93.110,144.882 93.022,144.882 92.913 C 144.882 92.805,144.666 92.717,144.401 92.717 C 144.137 92.717,143.866 92.628,143.799 92.520 C 143.732 92.411,143.417 92.323,143.099 92.323 C 142.780 92.323,142.520 92.234,142.520 92.126 C 142.520 92.018,142.348 91.929,142.138 91.929 C 141.927 91.929,141.701 91.841,141.634 91.732 C 141.567 91.624,141.296 91.535,141.032 91.535 C 140.767 91.535,140.551 91.447,140.551 91.339 C 140.551 91.230,140.285 91.142,139.961 91.142 C 139.636 91.142,139.370 91.059,139.370 90.958 C 139.370 90.857,139.171 90.719,138.927 90.650 C 138.452 90.517,137.711 90.219,137.158 89.938 C 136.970 89.842,136.681 89.764,136.516 89.764 C 136.350 89.764,136.039 89.675,135.824 89.567 C 135.609 89.459,135.257 89.281,135.042 89.173 C 134.827 89.065,134.478 88.976,134.266 88.976 C 134.055 88.976,133.827 88.888,133.760 88.780 C 133.693 88.671,133.427 88.583,133.169 88.583 C 132.911 88.583,132.646 88.494,132.579 88.386 C 132.512 88.278,132.241 88.189,131.977 88.189 C 131.712 88.189,131.496 88.100,131.496 87.992 C 131.496 87.884,131.275 87.795,131.004 87.795 C 130.733 87.795,130.512 87.707,130.512 87.598 C 130.512 87.490,130.246 87.402,129.921 87.402 C 129.596 87.402,129.331 87.313,129.331 87.205 C 129.331 87.096,129.065 87.008,128.740 87.008 C 128.415 87.008,128.150 86.941,128.150 86.858 C 128.150 86.776,127.441 86.489,126.575 86.220 C 125.709 85.952,125.000 85.665,125.000 85.582 C 125.000 85.500,124.734 85.433,124.409 85.433 C 124.085 85.433,123.819 85.344,123.819 85.236 C 123.819 85.128,123.553 85.039,123.228 85.039 C 122.904 85.039,122.638 84.951,122.638 84.843 C 122.638 84.734,122.416 84.646,122.146 84.646 C 121.875 84.646,121.654 84.557,121.654 84.449 C 121.654 84.341,121.437 84.252,121.173 84.252 C 120.909 84.252,120.638 84.163,120.571 84.055 C 120.504 83.947,120.238 83.858,119.980 83.858 C 119.722 83.858,119.457 83.770,119.390 83.661 C 119.323 83.553,119.057 83.465,118.799 83.465 C 118.541 83.465,118.286 83.394,118.233 83.307 C 118.179 83.220,117.687 83.027,117.138 82.877 C 116.590 82.728,116.142 82.533,116.142 82.445 C 116.142 82.356,115.876 82.283,115.551 82.283 C 115.226 82.283,114.961 82.195,114.961 82.087 C 114.961 81.978,114.695 81.890,114.370 81.890 C 114.045 81.890,113.780 81.801,113.780 81.693 C 113.780 81.585,113.608 81.496,113.397 81.496 C 113.187 81.496,112.961 81.407,112.894 81.299 C 112.827 81.191,112.561 81.102,112.303 81.102 C 112.045 81.102,111.780 81.014,111.713 80.906 C 111.646 80.797,111.375 80.709,111.110 80.709 C 110.846 80.709,110.630 80.620,110.630 80.512 C 110.630 80.404,110.364 80.315,110.039 80.315 C 109.715 80.315,109.449 80.226,109.449 80.118 C 109.449 80.010,109.183 79.921,108.858 79.921 C 108.533 79.921,108.268 79.833,108.268 79.724 C 108.268 79.616,108.046 79.528,107.776 79.528 C 107.505 79.528,107.283 79.439,107.283 79.331 C 107.283 79.222,107.018 79.134,106.693 79.134 C 106.368 79.134,106.102 79.045,106.102 78.937 C 106.102 78.829,105.846 78.740,105.533 78.740 C 105.208 78.740,104.915 78.613,104.850 78.445 C 104.788 78.282,104.575 78.150,104.376 78.150 C 104.178 78.150,103.932 78.077,103.829 77.988 C 103.726 77.899,102.977 77.618,102.165 77.362 C 101.353 77.107,100.605 76.825,100.502 76.736 C 100.399 76.647,100.111 76.575,99.862 76.575 C 99.613 76.575,99.409 76.486,99.409 76.378 C 99.409 76.270,99.193 76.181,98.929 76.181 C 98.665 76.181,98.394 76.093,98.327 75.984 C 98.260 75.876,98.032 75.787,97.820 75.787 C 97.609 75.787,97.260 75.699,97.045 75.591 C 96.830 75.482,96.478 75.305,96.263 75.197 C 96.047 75.089,95.698 75.000,95.487 75.000 C 95.275 75.000,95.047 74.911,94.980 74.803 C 94.913 74.695,94.686 74.606,94.474 74.606 C 94.262 74.606,93.913 74.518,93.698 74.409 C 93.483 74.301,93.131 74.124,92.916 74.016 C 92.701 73.907,92.347 73.819,92.129 73.819 C 91.911 73.819,91.732 73.730,91.732 73.622 C 91.732 73.514,91.467 73.425,91.142 73.425 C 90.817 73.425,90.551 73.337,90.551 73.228 C 90.551 73.120,90.285 73.031,89.961 73.031 C 89.636 73.031,89.370 72.943,89.370 72.835 C 89.370 72.726,89.154 72.638,88.890 72.638 C 88.625 72.638,88.354 72.549,88.287 72.441 C 88.220 72.333,87.950 72.244,87.685 72.244 C 87.421 72.244,87.205 72.156,87.205 72.047 C 87.205 71.939,86.983 71.850,86.713 71.850 C 86.442 71.850,86.220 71.762,86.220 71.654 C 86.220 71.545,85.955 71.457,85.630 71.457 C 85.305 71.457,85.039 71.368,85.039 71.260 C 85.039 71.152,84.774 71.063,84.449 71.063 C 84.124 71.063,83.858 70.974,83.858 70.866 C 83.858 70.758,83.637 70.669,83.366 70.669 C 83.095 70.669,82.874 70.581,82.874 70.472 C 82.874 70.364,82.608 70.276,82.283 70.276 C 81.959 70.276,81.693 70.187,81.693 70.079 C 81.693 69.970,81.427 69.882,81.102 69.882 C 80.778 69.882,80.512 69.793,80.512 69.685 C 80.512 69.577,80.333 69.488,80.115 69.488 C 79.897 69.488,79.543 69.400,79.328 69.291 C 79.113 69.183,78.761 69.006,78.546 68.898 C 78.331 68.789,77.977 68.701,77.759 68.701 C 77.541 68.701,77.362 68.612,77.362 68.504 C 77.362 68.396,77.096 68.307,76.772 68.307 C 76.447 68.307,76.181 68.219,76.181 68.110 C 76.181 68.002,75.915 67.913,75.591 67.913 C 75.266 67.913,75.000 67.825,75.000 67.717 C 75.000 67.608,74.779 67.520,74.508 67.520 C 74.237 67.520,74.016 67.431,74.016 67.323 C 74.016 67.215,73.800 67.126,73.535 67.126 C 73.271 67.126,73.000 67.037,72.933 66.929 C 72.866 66.821,72.551 66.732,72.232 66.732 C 71.914 66.732,71.654 66.644,71.654 66.535 C 71.654 66.427,71.442 66.339,71.182 66.339 C 70.923 66.339,70.660 66.206,70.598 66.043 C 70.536 65.881,70.278 65.748,70.026 65.748 C 69.773 65.748,69.483 65.673,69.380 65.582 C 69.277 65.491,68.507 65.203,67.668 64.942 C 66.830 64.682,66.143 64.402,66.143 64.321 C 66.142 64.240,65.876 64.173,65.551 64.173 C 65.226 64.173,64.961 64.085,64.961 63.976 C 64.961 63.868,64.695 63.780,64.370 63.780 C 64.045 63.780,63.780 63.707,63.780 63.618 C 63.780 63.530,63.331 63.335,62.783 63.186 C 62.235 63.036,61.742 62.843,61.689 62.756 C 61.635 62.669,61.375 62.598,61.110 62.598 C 60.846 62.598,60.630 62.510,60.630 62.402 C 60.630 62.293,60.364 62.205,60.039 62.205 C 59.715 62.205,59.449 62.116,59.449 62.008 C 59.449 61.900,59.233 61.811,58.968 61.811 C 58.704 61.811,58.433 61.722,58.366 61.614 C 58.299 61.506,58.028 61.417,57.764 61.417 C 57.500 61.417,57.283 61.329,57.283 61.220 C 57.283 61.112,57.018 61.024,56.693 61.024 C 56.368 61.024,56.102 60.935,56.102 60.827 C 56.102 60.719,55.837 60.630,55.512 60.630 C 55.187 60.630,54.921 60.541,54.921 60.433 C 54.921 60.325,54.743 60.236,54.525 60.236 C 54.307 60.236,53.953 60.148,53.737 60.039 C 53.522 59.931,53.170 59.754,52.955 59.646 C 52.740 59.537,52.386 59.449,52.168 59.449 C 51.950 59.449,51.772 59.360,51.772 59.252 C 51.772 59.144,51.506 59.055,51.181 59.055 C 50.856 59.055,50.591 58.967,50.591 58.858 C 50.591 58.750,50.412 58.661,50.194 58.661 C 49.811 58.661,49.622 58.591,48.674 58.102 C 48.432 57.976,48.061 57.874,47.849 57.874 C 47.637 57.874,47.409 57.785,47.343 57.677 C 47.276 57.569,47.005 57.480,46.740 57.480 C 46.476 57.480,46.260 57.392,46.260 57.283 C 46.260 57.175,45.994 57.087,45.669 57.087 C 45.344 57.087,45.079 56.998,45.079 56.890 C 45.079 56.781,44.863 56.693,44.598 56.693 C 44.334 56.693,44.063 56.604,43.996 56.496 C 43.929 56.388,43.663 56.299,43.406 56.299 C 43.148 56.299,42.882 56.211,42.815 56.102 C 42.748 55.994,42.477 55.906,42.213 55.906 C 41.949 55.906,41.732 55.817,41.732 55.709 C 41.732 55.600,41.467 55.512,41.142 55.512 C 40.817 55.512,40.551 55.423,40.551 55.315 C 40.551 55.207,40.373 55.118,40.155 55.118 C 39.937 55.118,39.582 55.030,39.367 54.921 C 39.152 54.813,38.800 54.636,38.585 54.528 C 38.370 54.419,38.016 54.331,37.798 54.331 C 37.580 54.331,37.402 54.242,37.402 54.134 C 37.402 54.026,37.145 53.937,36.832 53.937 C 36.507 53.937,36.214 53.810,36.149 53.642 C 36.087 53.479,35.817 53.346,35.549 53.346 C 35.282 53.346,35.019 53.275,34.965 53.189 C 34.911 53.102,34.413 52.907,33.858 52.756 C 33.303 52.605,32.805 52.410,32.751 52.323 C 32.698 52.236,32.438 52.165,32.173 52.165 C 31.909 52.165,31.693 52.077,31.693 51.969 C 31.693 51.860,31.427 51.772,31.102 51.772 C 30.778 51.772,30.512 51.683,30.512 51.575 C 30.512 51.467,30.246 51.378,29.921 51.378 C 29.596 51.378,29.331 51.289,29.331 51.181 C 29.331 51.073,29.109 50.984,28.839 50.984 C 28.568 50.984,28.346 50.896,28.346 50.787 C 28.346 50.679,28.130 50.591,27.866 50.591 C 27.602 50.591,27.331 50.502,27.264 50.394 C 27.197 50.285,26.926 50.197,26.662 50.197 C 26.397 50.197,26.181 50.108,26.181 50.000 C 26.181 49.892,25.965 49.803,25.701 49.803 C 25.436 49.803,25.165 49.715,25.098 49.606 C 25.032 49.498,24.766 49.409,24.508 49.409 C 24.250 49.409,23.995 49.338,23.941 49.252 C 23.888 49.165,23.390 48.970,22.835 48.819 C 22.280 48.668,21.782 48.473,21.728 48.386 C 21.674 48.299,21.414 48.228,21.150 48.228 C 20.886 48.228,20.669 48.140,20.669 48.031 C 20.669 47.923,20.453 47.835,20.189 47.835 C 19.925 47.835,19.654 47.746,19.587 47.638 C 19.520 47.530,19.249 47.441,18.984 47.441 C 18.720 47.441,18.504 47.352,18.504 47.244 C 18.504 47.136,18.238 47.047,17.913 47.047 C 17.589 47.047,17.323 46.959,17.323 46.850 C 17.323 46.742,17.057 46.654,16.732 46.654 C 16.407 46.654,16.142 46.565,16.142 46.457 C 16.142 46.348,15.963 46.260,15.745 46.260 C 15.527 46.260,15.173 46.171,14.958 46.063 C 14.743 45.955,14.391 45.778,14.176 45.669 C 13.961 45.561,13.607 45.472,13.388 45.472 C 13.170 45.472,12.992 45.384,12.992 45.276 C 12.992 45.167,12.726 45.079,12.402 45.079 C 12.077 45.079,11.811 44.990,11.811 44.882 C 11.811 44.774,11.545 44.685,11.220 44.685 C 10.896 44.685,10.630 44.596,10.630 44.488 C 10.630 44.380,10.364 44.291,10.039 44.291 C 9.715 44.291,9.449 44.203,9.449 44.094 C 9.449 43.986,9.227 43.898,8.957 43.898 C 8.686 43.898,8.465 43.809,8.465 43.701 C 8.465 43.593,8.199 43.504,7.874 43.504 C 7.549 43.504,7.283 43.415,7.283 43.307 C 7.283 43.199,7.105 43.110,6.887 43.110 C 6.669 43.110,6.293 43.008,6.050 42.883 C 5.105 42.394,4.913 42.323,4.542 42.323 C 4.330 42.323,4.102 42.234,4.035 42.126 C 3.969 42.018,3.736 41.929,3.518 41.929 C 3.300 41.929,2.989 41.796,2.826 41.634 C 2.664 41.471,2.321 41.339,2.064 41.339 C 1.808 41.339,1.543 41.250,1.476 41.142 C 1.349 40.936,0.865 40.905,0.443 41.075 M42.323 84.945 C 42.323 85.256,44.352 87.402,44.646 87.402 C 44.737 87.402,45.286 87.844,45.866 88.386 C 46.446 88.927,47.002 89.370,47.102 89.370 C 47.201 89.370,47.531 89.636,47.835 89.961 C 48.138 90.285,48.484 90.551,48.603 90.551 C 48.722 90.551,48.819 90.640,48.819 90.748 C 48.819 90.856,48.908 90.945,49.018 90.945 C 49.127 90.945,49.494 91.211,49.834 91.535 C 50.174 91.860,50.572 92.126,50.718 92.126 C 50.865 92.126,50.986 92.237,50.988 92.372 C 50.991 92.578,51.794 93.207,53.316 94.193 C 53.484 94.301,53.797 94.545,54.013 94.734 C 54.228 94.924,54.499 95.079,54.614 95.079 C 54.729 95.079,55.077 95.298,55.388 95.565 C 55.699 95.833,56.120 96.105,56.323 96.169 C 56.527 96.234,56.693 96.358,56.693 96.446 C 56.693 96.534,56.959 96.716,57.283 96.850 C 57.608 96.985,57.874 97.173,57.874 97.268 C 57.874 97.363,57.990 97.441,58.132 97.441 C 58.274 97.441,58.580 97.618,58.813 97.835 C 59.045 98.051,59.331 98.228,59.449 98.228 C 59.566 98.228,59.852 98.406,60.085 98.622 C 60.317 98.839,60.623 99.016,60.765 99.016 C 60.907 99.016,61.024 99.104,61.024 99.213 C 61.024 99.321,61.201 99.409,61.417 99.409 C 61.634 99.409,61.811 99.498,61.811 99.606 C 61.811 99.715,61.944 99.803,62.106 99.803 C 62.269 99.803,62.402 99.892,62.402 100.000 C 62.402 100.108,62.534 100.197,62.697 100.197 C 62.859 100.197,62.992 100.285,62.992 100.394 C 62.992 100.502,63.169 100.591,63.386 100.591 C 63.602 100.591,63.780 100.679,63.780 100.787 C 63.780 100.896,63.957 100.984,64.173 100.984 C 64.390 100.984,64.567 101.056,64.567 101.144 C 64.567 101.232,64.877 101.426,65.256 101.575 C 65.635 101.723,65.945 101.917,65.945 102.005 C 65.945 102.093,66.122 102.165,66.339 102.165 C 66.555 102.165,66.732 102.254,66.732 102.362 C 66.732 102.470,66.909 102.559,67.126 102.559 C 67.343 102.559,67.520 102.648,67.520 102.756 C 67.520 102.864,67.697 102.953,67.913 102.953 C 68.130 102.953,68.307 103.041,68.307 103.150 C 68.307 103.258,68.484 103.346,68.701 103.346 C 68.917 103.346,69.094 103.435,69.094 103.543 C 69.094 103.652,69.272 103.740,69.488 103.740 C 69.705 103.740,69.882 103.829,69.882 103.937 C 69.882 104.045,70.059 104.134,70.276 104.134 C 70.492 104.134,70.669 104.207,70.669 104.296 C 70.669 104.477,72.814 105.512,73.188 105.512 C 73.319 105.512,73.425 105.600,73.425 105.709 C 73.425 105.817,73.541 105.906,73.683 105.906 C 73.826 105.906,74.308 106.083,74.757 106.299 C 75.205 106.516,75.709 106.693,75.876 106.693 C 76.044 106.693,76.181 106.781,76.181 106.890 C 76.181 106.998,76.315 107.087,76.479 107.087 C 76.643 107.087,76.953 107.175,77.168 107.283 C 77.383 107.392,77.735 107.569,77.950 107.677 C 78.165 107.785,78.519 107.874,78.737 107.874 C 78.955 107.874,79.134 107.963,79.134 108.071 C 79.134 108.179,79.400 108.268,79.724 108.268 C 80.049 108.268,80.315 108.340,80.315 108.429 C 80.315 108.518,80.758 108.711,81.299 108.858 C 81.841 109.006,82.283 109.199,82.283 109.288 C 82.283 109.376,82.549 109.449,82.874 109.449 C 83.199 109.449,83.465 109.537,83.465 109.646 C 83.465 109.754,83.725 109.843,84.044 109.843 C 84.362 109.843,84.677 109.931,84.744 110.039 C 84.811 110.148,85.077 110.236,85.335 110.236 C 85.593 110.236,85.858 110.325,85.925 110.433 C 85.992 110.541,86.302 110.630,86.614 110.630 C 86.926 110.630,87.236 110.719,87.303 110.827 C 87.370 110.935,87.685 111.024,88.004 111.024 C 88.322 111.024,88.583 111.112,88.583 111.220 C 88.583 111.329,88.887 111.417,89.260 111.417 C 89.633 111.417,89.992 111.506,90.059 111.614 C 90.126 111.722,90.486 111.811,90.858 111.811 C 91.231 111.811,91.535 111.900,91.535 112.008 C 91.535 112.116,91.890 112.205,92.323 112.205 C 92.756 112.205,93.110 112.293,93.110 112.402 C 93.110 112.510,93.465 112.598,93.898 112.598 C 94.331 112.598,94.685 112.687,94.685 112.795 C 94.685 112.904,95.078 112.992,95.559 112.992 C 96.040 112.992,96.488 113.081,96.555 113.189 C 96.622 113.297,97.065 113.386,97.539 113.386 C 98.014 113.386,98.457 113.474,98.524 113.583 C 98.591 113.691,99.033 113.780,99.508 113.780 C 99.982 113.780,100.425 113.868,100.492 113.976 C 100.559 114.085,101.046 114.173,101.575 114.173 C 102.103 114.173,102.591 114.262,102.657 114.370 C 102.724 114.478,103.300 114.567,103.937 114.567 C 104.574 114.567,105.150 114.656,105.217 114.764 C 105.283 114.872,105.815 114.961,106.398 114.961 C 106.980 114.961,107.512 115.049,107.579 115.157 C 107.646 115.266,108.182 115.354,108.771 115.354 C 109.361 115.354,109.843 115.435,109.843 115.534 C 109.843 115.633,110.418 115.766,111.122 115.830 C 111.826 115.893,112.977 115.997,113.681 116.060 C 114.385 116.123,114.961 116.256,114.961 116.355 C 114.961 116.454,115.430 116.535,116.004 116.535 C 116.578 116.535,117.145 116.633,117.265 116.753 C 117.385 116.873,118.089 117.051,118.830 117.149 C 119.571 117.248,120.709 117.414,121.358 117.520 C 122.008 117.625,123.159 117.808,123.917 117.925 C 124.675 118.043,125.827 118.225,126.476 118.330 C 127.126 118.435,128.100 118.566,128.642 118.621 C 129.183 118.675,129.803 118.800,130.020 118.898 C 130.389 119.065,131.028 119.153,133.661 119.403 C 134.257 119.460,134.921 119.586,135.138 119.684 C 135.354 119.781,135.930 119.908,136.417 119.964 C 137.253 120.062,138.142 120.192,141.289 120.677 C 142.020 120.790,143.105 120.931,143.701 120.990 C 144.296 121.049,144.868 121.178,144.970 121.277 C 145.073 121.376,145.654 121.457,146.260 121.457 C 146.866 121.457,147.446 121.536,147.549 121.632 C 147.652 121.729,148.268 121.862,148.917 121.928 C 149.567 121.994,150.719 122.139,151.476 122.251 C 152.234 122.363,153.297 122.500,153.839 122.556 C 154.380 122.611,155.000 122.737,155.217 122.835 C 155.592 123.004,156.325 123.105,158.957 123.349 C 159.606 123.409,160.222 123.539,160.325 123.639 C 160.821 124.117,164.173 123.846,164.173 123.327 C 164.173 123.056,164.085 122.835,163.976 122.835 C 163.868 122.835,163.780 122.721,163.780 122.583 C 163.780 122.444,163.602 122.203,163.386 122.047 C 163.169 121.891,162.992 121.650,162.992 121.512 C 162.992 121.374,162.638 120.895,162.205 120.449 C 161.772 120.003,161.417 119.558,161.417 119.462 C 161.417 119.271,158.150 115.945,157.962 115.945 C 157.899 115.945,157.524 115.639,157.128 115.265 C 156.731 114.892,156.184 114.471,155.910 114.331 C 155.637 114.190,155.369 114.021,155.315 113.953 C 155.127 113.720,153.467 112.992,153.124 112.992 C 152.934 112.992,152.724 112.904,152.657 112.795 C 152.591 112.687,152.275 112.598,151.957 112.598 C 151.638 112.598,151.378 112.520,151.378 112.423 C 151.378 112.258,151.156 112.199,149.358 111.893 C 148.951 111.824,148.570 111.689,148.510 111.592 C 148.451 111.496,148.147 111.417,147.835 111.417 C 147.523 111.417,147.213 111.329,147.146 111.220 C 147.079 111.112,146.719 111.024,146.347 111.024 C 145.974 111.024,145.669 110.935,145.669 110.827 C 145.669 110.719,145.315 110.630,144.882 110.630 C 144.449 110.630,144.094 110.541,144.094 110.433 C 144.094 110.325,143.740 110.236,143.307 110.236 C 142.874 110.236,142.520 110.148,142.520 110.039 C 142.520 109.931,142.215 109.843,141.842 109.843 C 141.470 109.843,141.110 109.754,141.043 109.646 C 140.976 109.537,140.666 109.449,140.354 109.449 C 140.042 109.449,139.732 109.360,139.665 109.252 C 139.598 109.144,139.244 109.055,138.878 109.055 C 138.512 109.055,138.157 108.967,138.091 108.858 C 138.024 108.750,137.669 108.661,137.303 108.661 C 136.937 108.661,136.583 108.573,136.516 108.465 C 136.449 108.356,136.095 108.268,135.728 108.268 C 135.362 108.268,135.008 108.179,134.941 108.071 C 134.874 107.963,134.514 107.874,134.142 107.874 C 133.769 107.874,133.465 107.785,133.465 107.677 C 133.465 107.569,133.110 107.480,132.677 107.480 C 132.244 107.480,131.890 107.392,131.890 107.283 C 131.890 107.175,131.541 107.087,131.114 107.087 C 130.687 107.087,130.283 106.998,130.217 106.890 C 130.150 106.781,129.840 106.693,129.528 106.693 C 129.216 106.693,128.911 106.614,128.851 106.517 C 128.792 106.420,128.410 106.291,128.003 106.229 C 126.276 105.968,125.778 105.852,125.676 105.687 C 125.616 105.591,125.268 105.512,124.902 105.512 C 124.535 105.512,124.181 105.423,124.114 105.315 C 124.047 105.207,123.643 105.118,123.217 105.118 C 122.790 105.118,122.441 105.030,122.441 104.921 C 122.441 104.813,122.131 104.724,121.752 104.724 C 121.373 104.724,121.063 104.636,121.063 104.528 C 121.063 104.419,120.709 104.331,120.276 104.331 C 119.843 104.331,119.488 104.242,119.488 104.134 C 119.488 104.026,119.183 103.937,118.811 103.937 C 118.438 103.937,118.079 103.848,118.012 103.740 C 117.945 103.632,117.546 103.543,117.126 103.543 C 116.706 103.543,116.307 103.455,116.240 103.346 C 116.173 103.238,115.876 103.150,115.579 103.150 C 115.282 103.150,114.940 103.050,114.819 102.929 C 114.698 102.808,114.215 102.627,113.746 102.527 C 113.277 102.426,112.539 102.253,112.106 102.142 C 111.673 102.031,111.030 101.892,110.677 101.834 C 110.324 101.776,109.987 101.649,109.928 101.553 C 109.868 101.457,109.520 101.378,109.154 101.378 C 108.787 101.378,108.433 101.289,108.366 101.181 C 108.299 101.073,107.945 100.984,107.579 100.984 C 107.213 100.984,106.858 100.896,106.791 100.787 C 106.724 100.679,106.370 100.591,106.004 100.591 C 105.638 100.591,105.283 100.502,105.217 100.394 C 105.150 100.285,104.790 100.197,104.418 100.197 C 104.045 100.197,103.740 100.108,103.740 100.000 C 103.740 99.892,103.386 99.803,102.953 99.803 C 102.520 99.803,102.165 99.715,102.165 99.606 C 102.165 99.498,101.861 99.409,101.488 99.409 C 101.115 99.409,100.756 99.321,100.689 99.213 C 100.622 99.104,100.268 99.016,99.902 99.016 C 99.535 99.016,99.181 98.927,99.114 98.819 C 99.047 98.711,98.693 98.622,98.327 98.622 C 97.961 98.622,97.606 98.533,97.539 98.425 C 97.472 98.317,97.118 98.228,96.752 98.228 C 96.386 98.228,96.031 98.140,95.965 98.031 C 95.898 97.923,95.543 97.835,95.177 97.835 C 94.811 97.835,94.462 97.755,94.403 97.659 C 94.343 97.562,93.961 97.432,93.554 97.371 C 91.792 97.105,91.339 96.994,91.339 96.829 C 91.339 96.732,90.984 96.654,90.551 96.654 C 90.118 96.654,89.764 96.565,89.764 96.457 C 89.764 96.348,89.409 96.260,88.976 96.260 C 88.543 96.260,88.189 96.171,88.189 96.063 C 88.189 95.955,87.835 95.866,87.402 95.866 C 86.969 95.866,86.614 95.778,86.614 95.669 C 86.614 95.561,86.260 95.472,85.827 95.472 C 85.394 95.472,85.039 95.384,85.039 95.276 C 85.039 95.167,84.685 95.079,84.252 95.079 C 83.819 95.079,83.465 94.990,83.465 94.882 C 83.465 94.774,83.110 94.685,82.677 94.685 C 82.244 94.685,81.890 94.596,81.890 94.488 C 81.890 94.380,81.491 94.291,81.004 94.291 C 80.517 94.291,80.118 94.203,80.118 94.094 C 80.118 93.986,79.858 93.898,79.539 93.898 C 79.221 93.898,78.905 93.809,78.839 93.701 C 78.772 93.593,78.417 93.504,78.051 93.504 C 77.685 93.504,77.336 93.425,77.277 93.328 C 77.217 93.231,76.835 93.102,76.428 93.040 C 74.701 92.779,74.203 92.663,74.101 92.498 C 74.041 92.402,73.693 92.323,73.327 92.323 C 72.961 92.323,72.606 92.234,72.539 92.126 C 72.472 92.018,72.118 91.929,71.752 91.929 C 71.386 91.929,71.031 91.841,70.965 91.732 C 70.898 91.624,70.494 91.535,70.067 91.535 C 69.640 91.535,69.291 91.447,69.291 91.339 C 69.291 91.230,68.999 91.142,68.642 91.142 C 68.284 91.142,67.893 91.043,67.772 90.921 C 67.651 90.800,67.190 90.623,66.748 90.528 C 66.306 90.432,65.568 90.259,65.108 90.143 C 64.648 90.027,63.983 89.885,63.630 89.826 C 63.277 89.768,62.940 89.641,62.880 89.545 C 62.821 89.449,62.472 89.370,62.106 89.370 C 61.740 89.370,61.392 89.291,61.332 89.195 C 61.273 89.099,60.935 88.972,60.583 88.914 C 60.230 88.856,59.542 88.709,59.055 88.588 C 57.465 88.193,56.608 87.978,55.807 87.772 C 55.374 87.661,54.731 87.522,54.378 87.464 C 54.025 87.406,53.688 87.279,53.628 87.183 C 53.569 87.087,53.220 87.008,52.854 87.008 C 52.488 87.008,52.134 86.919,52.067 86.811 C 52.000 86.703,51.646 86.614,51.280 86.614 C 50.913 86.614,50.559 86.526,50.492 86.417 C 50.425 86.309,50.071 86.220,49.705 86.220 C 49.339 86.220,48.984 86.132,48.917 86.024 C 48.850 85.915,48.496 85.827,48.130 85.827 C 47.764 85.827,47.409 85.738,47.343 85.630 C 47.276 85.522,46.921 85.433,46.555 85.433 C 46.189 85.433,45.835 85.344,45.768 85.236 C 45.701 85.128,45.346 85.039,44.980 85.039 C 44.614 85.039,44.260 84.951,44.193 84.843 C 43.985 84.506,42.323 84.597,42.323 84.945 M76.575 118.976 C 76.575 119.382,79.087 121.850,79.501 121.850 C 79.592 121.850,79.944 122.116,80.284 122.441 C 80.624 122.766,81.016 123.031,81.156 123.031 C 81.295 123.031,81.537 123.209,81.693 123.425 C 81.849 123.642,82.115 123.819,82.283 123.819 C 82.452 123.819,82.718 123.996,82.874 124.213 C 83.030 124.429,83.296 124.606,83.465 124.606 C 83.633 124.606,83.899 124.783,84.055 125.000 C 84.211 125.217,84.496 125.394,84.689 125.394 C 84.882 125.394,85.039 125.482,85.039 125.591 C 85.039 125.699,85.156 125.787,85.298 125.787 C 85.440 125.787,85.746 125.965,85.978 126.181 C 86.211 126.398,86.537 126.575,86.704 126.575 C 86.871 126.575,87.008 126.663,87.008 126.772 C 87.008 126.880,87.185 126.969,87.402 126.969 C 87.618 126.969,87.795 127.057,87.795 127.165 C 87.795 127.274,87.928 127.362,88.091 127.362 C 88.253 127.362,88.386 127.434,88.386 127.522 C 88.386 127.610,88.696 127.804,89.075 127.953 C 89.454 128.101,89.764 128.295,89.764 128.383 C 89.764 128.471,89.941 128.543,90.157 128.543 C 90.374 128.543,90.551 128.632,90.551 128.740 C 90.551 128.848,90.719 128.937,90.924 128.937 C 91.129 128.937,91.347 129.070,91.410 129.232 C 91.472 129.395,91.703 129.528,91.923 129.528 C 92.143 129.528,92.323 129.616,92.323 129.724 C 92.323 129.833,92.500 129.921,92.717 129.921 C 92.933 129.921,93.110 130.010,93.110 130.118 C 93.110 130.226,93.225 130.315,93.366 130.315 C 93.728 130.315,94.682 130.778,94.684 130.955 C 94.684 131.036,94.822 131.102,94.990 131.102 C 95.157 131.102,95.661 131.280,96.109 131.496 C 96.558 131.713,97.041 131.890,97.183 131.890 C 97.325 131.890,97.441 131.962,97.441 132.051 C 97.441 132.140,97.889 132.334,98.438 132.484 C 98.986 132.633,99.478 132.826,99.532 132.913 C 99.586 133.000,99.846 133.071,100.110 133.071 C 100.374 133.071,100.591 133.159,100.591 133.268 C 100.591 133.376,100.856 133.465,101.181 133.465 C 101.506 133.465,101.772 133.553,101.772 133.661 C 101.772 133.770,102.037 133.858,102.362 133.858 C 102.687 133.858,102.953 133.947,102.953 134.055 C 102.953 134.163,103.263 134.252,103.642 134.252 C 104.021 134.252,104.331 134.341,104.331 134.449 C 104.331 134.557,104.685 134.646,105.118 134.646 C 105.551 134.646,105.906 134.734,105.906 134.843 C 105.906 134.951,106.348 135.039,106.890 135.039 C 107.431 135.039,107.874 135.128,107.874 135.236 C 107.874 135.344,108.299 135.433,108.819 135.433 C 109.339 135.433,109.848 135.515,109.951 135.615 C 110.054 135.714,110.802 135.848,111.614 135.912 C 112.426 135.975,114.065 136.118,115.256 136.229 C 119.391 136.614,126.025 136.928,139.961 137.399 C 149.271 137.714,156.391 137.972,159.300 138.100 C 162.130 138.225,162.598 138.115,162.598 137.329 C 162.598 137.165,162.687 136.976,162.795 136.909 C 162.904 136.843,162.992 136.572,162.992 136.307 C 162.992 136.043,163.081 135.827,163.189 135.827 C 163.297 135.827,163.386 135.655,163.386 135.445 C 163.386 135.235,163.474 135.008,163.583 134.941 C 163.691 134.874,163.780 134.603,163.780 134.339 C 163.780 134.074,163.868 133.858,163.976 133.858 C 164.085 133.858,164.173 133.681,164.173 133.465 C 164.173 133.248,164.262 133.071,164.370 133.071 C 164.478 133.071,164.567 132.894,164.567 132.677 C 164.567 132.461,164.656 132.283,164.764 132.283 C 164.872 132.283,164.961 132.112,164.961 131.901 C 164.961 131.691,165.049 131.465,165.157 131.398 C 165.651 131.093,165.368 130.315,164.764 130.315 C 164.439 130.315,164.173 130.226,164.173 130.118 C 164.173 130.005,163.554 129.921,162.708 129.921 C 161.903 129.921,161.189 129.833,161.122 129.724 C 161.055 129.616,160.391 129.528,159.646 129.528 C 158.901 129.528,158.236 129.439,158.169 129.331 C 158.102 129.222,157.438 129.134,156.693 129.134 C 155.948 129.134,155.283 129.045,155.217 128.937 C 155.150 128.829,154.485 128.740,153.740 128.740 C 152.995 128.740,152.331 128.652,152.264 128.543 C 152.197 128.435,151.532 128.346,150.787 128.346 C 150.042 128.346,149.378 128.258,149.311 128.150 C 149.244 128.041,148.493 127.953,147.643 127.953 C 146.668 127.953,146.068 127.871,146.022 127.730 C 145.981 127.608,145.198 127.424,144.283 127.323 C 141.602 127.024,138.210 126.599,135.039 126.164 C 134.227 126.053,132.943 125.919,132.185 125.867 C 131.427 125.815,130.630 125.693,130.413 125.595 C 130.197 125.497,129.444 125.367,128.740 125.305 C 128.036 125.244,126.752 125.101,125.886 124.989 C 125.020 124.876,123.625 124.737,122.785 124.680 C 121.946 124.623,121.260 124.501,121.260 124.410 C 121.260 124.254,120.683 124.188,116.929 123.913 C 116.117 123.853,115.276 123.723,115.059 123.623 C 114.843 123.523,114.134 123.396,113.484 123.340 C 112.835 123.284,111.550 123.145,110.630 123.030 C 109.710 122.915,108.337 122.773,107.579 122.714 C 106.821 122.655,106.117 122.525,106.014 122.426 C 105.911 122.326,105.185 122.244,104.401 122.244 C 103.617 122.244,102.921 122.156,102.854 122.047 C 102.787 121.939,102.156 121.850,101.452 121.850 C 100.747 121.850,100.015 121.767,99.824 121.665 C 99.634 121.563,98.842 121.461,98.066 121.438 C 97.289 121.416,96.654 121.322,96.654 121.230 C 96.654 121.138,96.039 121.063,95.287 121.063 C 94.536 121.063,93.866 120.974,93.799 120.866 C 93.732 120.758,93.024 120.669,92.224 120.669 C 91.425 120.669,90.717 120.581,90.650 120.472 C 90.583 120.364,89.918 120.276,89.173 120.276 C 88.428 120.276,87.764 120.187,87.697 120.079 C 87.630 119.970,86.966 119.882,86.220 119.882 C 85.475 119.882,84.820 119.807,84.763 119.716 C 84.707 119.625,84.060 119.532,83.325 119.508 C 82.590 119.485,81.904 119.382,81.801 119.280 C 81.698 119.178,80.973 119.094,80.189 119.094 C 79.405 119.094,78.709 119.006,78.642 118.898 C 78.444 118.578,76.575 118.649,76.575 118.976 " stroke="none" fill="#3e5169" fill-rule="evenodd"></path><path id="path1" d="M397.933 41.142 C 397.866 41.250,397.592 41.339,397.325 41.339 C 397.057 41.339,396.787 41.471,396.725 41.634 C 396.660 41.802,396.367 41.929,396.042 41.929 C 395.729 41.929,395.472 42.018,395.472 42.126 C 395.472 42.234,395.207 42.323,394.882 42.323 C 394.557 42.323,394.291 42.411,394.291 42.520 C 394.291 42.628,394.026 42.717,393.701 42.717 C 393.376 42.717,393.110 42.805,393.110 42.913 C 393.110 43.022,392.904 43.110,392.651 43.110 C 392.398 43.110,392.131 43.171,392.057 43.245 C 391.861 43.441,390.511 43.891,390.108 43.895 C 389.919 43.896,389.764 43.986,389.764 44.094 C 389.764 44.203,389.498 44.291,389.173 44.291 C 388.848 44.291,388.583 44.380,388.583 44.488 C 388.583 44.596,388.366 44.685,388.102 44.685 C 387.838 44.685,387.567 44.774,387.500 44.882 C 387.433 44.990,387.162 45.079,386.898 45.079 C 386.634 45.079,386.417 45.167,386.417 45.276 C 386.417 45.384,386.196 45.472,385.925 45.472 C 385.655 45.472,385.433 45.561,385.433 45.669 C 385.433 45.778,385.167 45.866,384.843 45.866 C 384.518 45.866,384.252 45.955,384.252 46.063 C 384.252 46.171,383.986 46.260,383.661 46.260 C 383.337 46.260,383.071 46.348,383.071 46.457 C 383.071 46.565,382.855 46.654,382.590 46.654 C 382.326 46.654,382.066 46.725,382.012 46.811 C 381.959 46.898,381.466 47.091,380.918 47.241 C 380.370 47.390,379.921 47.585,379.921 47.673 C 379.921 47.762,379.656 47.835,379.331 47.835 C 379.006 47.835,378.740 47.923,378.740 48.031 C 378.740 48.140,378.474 48.228,378.150 48.228 C 377.825 48.228,377.559 48.317,377.559 48.425 C 377.559 48.533,377.343 48.622,377.079 48.622 C 376.814 48.622,376.543 48.711,376.476 48.819 C 376.409 48.927,376.138 49.016,375.874 49.016 C 375.610 49.016,375.394 49.104,375.394 49.213 C 375.394 49.321,375.128 49.409,374.803 49.409 C 374.478 49.409,374.213 49.498,374.213 49.606 C 374.213 49.715,373.996 49.803,373.732 49.803 C 373.468 49.803,373.197 49.892,373.130 50.000 C 373.063 50.108,372.835 50.197,372.624 50.197 C 372.412 50.197,372.041 50.299,371.799 50.424 C 370.851 50.914,370.661 50.984,370.278 50.984 C 370.060 50.984,369.882 51.073,369.882 51.181 C 369.882 51.289,369.616 51.378,369.291 51.378 C 368.967 51.378,368.701 51.467,368.701 51.575 C 368.701 51.683,368.479 51.772,368.209 51.772 C 367.938 51.772,367.717 51.860,367.717 51.969 C 367.717 52.077,367.544 52.165,367.332 52.165 C 366.983 52.165,366.637 52.277,365.453 52.773 C 365.236 52.863,364.594 53.084,364.026 53.263 C 363.457 53.442,362.992 53.667,362.992 53.763 C 362.992 53.859,362.814 53.937,362.596 53.937 C 362.378 53.937,362.023 54.026,361.808 54.134 C 361.593 54.242,361.241 54.419,361.026 54.528 C 360.811 54.636,360.457 54.724,360.239 54.724 C 360.021 54.724,359.843 54.813,359.843 54.921 C 359.843 55.030,359.577 55.118,359.252 55.118 C 358.927 55.118,358.661 55.207,358.661 55.315 C 358.661 55.423,358.396 55.512,358.071 55.512 C 357.746 55.512,357.480 55.600,357.480 55.709 C 357.480 55.817,357.264 55.906,357.000 55.906 C 356.736 55.906,356.465 55.994,356.398 56.102 C 356.331 56.211,356.104 56.299,355.894 56.299 C 355.684 56.299,355.512 56.388,355.512 56.496 C 355.512 56.604,355.251 56.693,354.933 56.693 C 354.614 56.693,354.299 56.781,354.232 56.890 C 354.165 56.998,353.900 57.087,353.642 57.087 C 353.384 57.087,353.118 57.175,353.051 57.283 C 352.984 57.392,352.713 57.480,352.449 57.480 C 352.185 57.480,351.969 57.569,351.969 57.677 C 351.969 57.785,351.790 57.874,351.572 57.874 C 351.354 57.874,351.000 57.963,350.785 58.071 C 350.570 58.179,350.218 58.356,350.003 58.465 C 349.788 58.573,349.384 58.661,349.105 58.661 C 348.818 58.661,348.651 58.747,348.720 58.858 C 348.790 58.970,348.623 59.055,348.336 59.055 C 348.057 59.055,347.653 59.144,347.438 59.252 C 347.223 59.360,346.871 59.537,346.656 59.646 C 346.441 59.754,346.087 59.843,345.869 59.843 C 345.651 59.843,345.472 59.931,345.472 60.039 C 345.472 60.148,345.256 60.236,344.992 60.236 C 344.728 60.236,344.457 60.325,344.390 60.433 C 344.323 60.541,344.008 60.630,343.689 60.630 C 343.371 60.630,343.110 60.719,343.110 60.827 C 343.110 60.935,342.894 61.024,342.630 61.024 C 342.365 61.024,342.094 61.112,342.028 61.220 C 341.961 61.329,341.690 61.417,341.425 61.417 C 341.161 61.417,340.945 61.506,340.945 61.614 C 340.945 61.722,340.729 61.811,340.464 61.811 C 340.200 61.811,339.929 61.900,339.862 62.008 C 339.795 62.116,339.567 62.205,339.356 62.205 C 339.144 62.205,338.817 62.283,338.629 62.379 C 338.441 62.474,338.022 62.662,337.697 62.795 C 337.372 62.929,336.952 63.116,336.764 63.212 C 336.576 63.308,336.200 63.386,335.928 63.386 C 335.656 63.386,335.433 63.474,335.433 63.583 C 335.433 63.691,335.255 63.780,335.037 63.780 C 334.819 63.780,334.487 63.858,334.299 63.953 C 334.111 64.049,333.735 64.215,333.465 64.323 C 333.194 64.430,332.725 64.618,332.422 64.739 C 332.119 64.861,331.698 64.961,331.487 64.961 C 331.275 64.961,331.102 65.049,331.102 65.157 C 331.102 65.266,330.886 65.354,330.622 65.354 C 330.358 65.354,330.087 65.443,330.020 65.551 C 329.953 65.659,329.679 65.748,329.411 65.748 C 329.144 65.748,328.874 65.881,328.811 66.043 C 328.747 66.212,328.453 66.339,328.129 66.339 C 327.815 66.339,327.559 66.427,327.559 66.535 C 327.559 66.644,327.381 66.732,327.163 66.732 C 326.780 66.732,326.590 66.802,325.642 67.292 C 325.400 67.417,325.029 67.520,324.817 67.520 C 324.606 67.520,324.378 67.608,324.311 67.717 C 324.244 67.825,323.978 67.913,323.720 67.913 C 323.463 67.913,323.197 68.002,323.130 68.110 C 323.063 68.219,322.792 68.307,322.528 68.307 C 322.263 68.307,322.047 68.396,322.047 68.504 C 322.047 68.612,321.826 68.701,321.555 68.701 C 321.284 68.701,321.063 68.789,321.063 68.898 C 321.063 69.006,320.797 69.094,320.472 69.094 C 320.148 69.094,319.882 69.183,319.882 69.291 C 319.882 69.400,319.616 69.488,319.291 69.488 C 318.967 69.488,318.701 69.577,318.701 69.685 C 318.701 69.793,318.479 69.882,318.209 69.882 C 317.938 69.882,317.717 69.970,317.717 70.079 C 317.717 70.187,317.451 70.276,317.126 70.276 C 316.801 70.276,316.535 70.364,316.535 70.472 C 316.535 70.581,316.319 70.669,316.055 70.669 C 315.791 70.669,315.520 70.758,315.453 70.866 C 315.386 70.974,315.120 71.063,314.862 71.063 C 314.604 71.063,314.339 71.152,314.272 71.260 C 314.205 71.368,313.934 71.457,313.669 71.457 C 313.405 71.457,313.189 71.545,313.189 71.654 C 313.189 71.762,312.973 71.850,312.708 71.850 C 312.444 71.850,312.173 71.939,312.106 72.047 C 312.039 72.156,311.768 72.244,311.504 72.244 C 311.240 72.244,311.024 72.333,311.024 72.441 C 311.024 72.549,310.758 72.638,310.433 72.638 C 310.108 72.638,309.843 72.726,309.843 72.835 C 309.843 72.943,309.626 73.031,309.362 73.031 C 309.098 73.031,308.838 73.103,308.784 73.189 C 308.730 73.276,308.238 73.469,307.690 73.619 C 307.141 73.768,306.693 73.963,306.693 74.051 C 306.693 74.140,306.477 74.213,306.212 74.213 C 305.948 74.213,305.677 74.301,305.610 74.409 C 305.543 74.518,305.228 74.606,304.910 74.606 C 304.591 74.606,304.331 74.695,304.331 74.803 C 304.331 74.911,304.152 75.000,303.934 75.000 C 303.716 75.000,303.362 75.089,303.147 75.197 C 302.932 75.305,302.580 75.482,302.365 75.591 C 302.150 75.699,301.801 75.787,301.589 75.787 C 301.377 75.787,301.150 75.876,301.083 75.984 C 301.016 76.093,300.760 76.181,300.513 76.181 C 300.267 76.181,300.005 76.242,299.931 76.316 C 299.815 76.431,298.769 76.856,298.130 77.047 C 297.849 77.131,297.212 77.370,296.752 77.564 C 296.535 77.655,296.004 77.843,295.571 77.980 C 295.138 78.118,294.644 78.346,294.473 78.486 C 294.302 78.626,293.925 78.740,293.636 78.740 C 293.347 78.740,293.110 78.829,293.110 78.937 C 293.110 79.045,292.932 79.134,292.714 79.134 C 292.496 79.134,292.142 79.222,291.926 79.331 C 291.711 79.439,291.359 79.616,291.144 79.724 C 290.929 79.833,290.580 79.921,290.369 79.921 C 290.157 79.921,289.929 80.010,289.862 80.118 C 289.795 80.226,289.524 80.315,289.260 80.315 C 288.996 80.315,288.780 80.404,288.780 80.512 C 288.780 80.620,288.563 80.709,288.299 80.709 C 288.035 80.709,287.764 80.797,287.697 80.906 C 287.630 81.014,287.359 81.102,287.095 81.102 C 286.830 81.102,286.614 81.191,286.614 81.299 C 286.614 81.407,286.348 81.496,286.024 81.496 C 285.699 81.496,285.433 81.585,285.433 81.693 C 285.433 81.801,285.255 81.890,285.037 81.890 C 284.819 81.890,284.442 81.992,284.200 82.117 C 283.252 82.607,283.063 82.677,282.680 82.677 C 282.462 82.677,282.283 82.766,282.283 82.874 C 282.283 82.982,282.067 83.071,281.803 83.071 C 281.539 83.071,281.268 83.159,281.201 83.268 C 281.134 83.376,280.819 83.465,280.500 83.465 C 280.182 83.465,279.921 83.553,279.921 83.661 C 279.921 83.770,279.705 83.858,279.441 83.858 C 279.176 83.858,278.905 83.947,278.839 84.055 C 278.772 84.163,278.544 84.252,278.332 84.252 C 277.961 84.252,277.769 84.323,276.824 84.812 C 276.581 84.937,276.210 85.039,275.999 85.039 C 275.787 85.039,275.559 85.128,275.492 85.236 C 275.425 85.344,275.197 85.433,274.986 85.433 C 274.774 85.433,274.425 85.522,274.210 85.630 C 273.995 85.738,273.643 85.915,273.428 86.024 C 273.213 86.132,272.858 86.220,272.640 86.220 C 272.422 86.220,272.244 86.309,272.244 86.417 C 272.244 86.526,271.978 86.614,271.654 86.614 C 271.329 86.614,271.063 86.703,271.063 86.811 C 271.063 86.919,270.885 87.008,270.667 87.008 C 270.449 87.008,270.094 87.096,269.879 87.205 C 269.664 87.313,269.312 87.490,269.097 87.598 C 268.882 87.707,268.528 87.795,268.310 87.795 C 268.092 87.795,267.913 87.884,267.913 87.992 C 267.913 88.100,267.648 88.189,267.323 88.189 C 266.998 88.189,266.732 88.278,266.732 88.386 C 266.732 88.494,266.516 88.583,266.252 88.583 C 265.987 88.583,265.717 88.671,265.650 88.780 C 265.583 88.888,265.355 88.976,265.143 88.976 C 264.932 88.976,264.605 89.055,264.417 89.150 C 263.747 89.491,263.072 89.750,261.713 90.186 C 260.955 90.430,260.195 90.744,260.024 90.885 C 259.853 91.026,259.570 91.142,259.396 91.142 C 259.221 91.142,259.024 91.230,258.957 91.339 C 258.890 91.447,258.619 91.535,258.355 91.535 C 258.090 91.535,257.874 91.624,257.874 91.732 C 257.874 91.841,257.608 91.929,257.283 91.929 C 256.959 91.929,256.693 92.018,256.693 92.126 C 256.693 92.234,256.427 92.323,256.102 92.323 C 255.778 92.323,255.512 92.411,255.512 92.520 C 255.512 92.628,255.296 92.717,255.031 92.717 C 254.767 92.717,254.496 92.805,254.429 92.913 C 254.362 93.022,254.091 93.110,253.827 93.110 C 253.563 93.110,253.346 93.199,253.346 93.307 C 253.346 93.415,253.130 93.504,252.866 93.504 C 252.602 93.504,252.331 93.593,252.264 93.701 C 252.197 93.809,251.926 93.898,251.662 93.898 C 251.397 93.898,251.181 93.986,251.181 94.094 C 251.181 94.203,251.003 94.291,250.785 94.291 C 250.567 94.291,250.212 94.380,249.997 94.488 C 249.782 94.596,249.430 94.774,249.215 94.882 C 249.000 94.990,248.602 95.079,248.329 95.079 C 248.057 95.079,247.835 95.167,247.835 95.276 C 247.835 95.384,247.613 95.472,247.343 95.472 C 247.072 95.472,246.850 95.561,246.850 95.669 C 246.850 95.778,246.634 95.866,246.370 95.866 C 246.106 95.866,245.835 95.955,245.768 96.063 C 245.701 96.171,245.430 96.260,245.166 96.260 C 244.901 96.260,244.685 96.348,244.685 96.457 C 244.685 96.565,244.419 96.654,244.094 96.654 C 243.770 96.654,243.504 96.742,243.504 96.850 C 243.504 96.959,243.288 97.047,243.023 97.047 C 242.759 97.047,242.488 97.136,242.421 97.244 C 242.354 97.352,242.083 97.441,241.819 97.441 C 241.555 97.441,241.339 97.530,241.339 97.638 C 241.339 97.746,241.122 97.835,240.858 97.835 C 240.594 97.835,240.323 97.923,240.256 98.031 C 240.189 98.140,239.918 98.228,239.654 98.228 C 239.389 98.228,239.173 98.317,239.173 98.425 C 239.173 98.533,238.952 98.622,238.681 98.622 C 238.410 98.622,238.189 98.711,238.189 98.819 C 238.189 98.927,237.973 99.016,237.708 99.016 C 237.444 99.016,237.173 99.104,237.106 99.213 C 237.039 99.321,236.724 99.409,236.406 99.409 C 236.087 99.409,235.827 99.498,235.827 99.606 C 235.827 99.715,235.648 99.803,235.430 99.803 C 235.212 99.803,234.858 99.892,234.643 100.000 C 234.428 100.108,234.076 100.285,233.861 100.394 C 233.646 100.502,233.292 100.591,233.074 100.591 C 232.856 100.591,232.677 100.663,232.677 100.752 C 232.677 100.841,232.234 101.034,231.693 101.181 C 231.152 101.329,230.709 101.506,230.709 101.575 C 230.709 101.644,230.266 101.821,229.724 101.969 C 229.183 102.116,228.740 102.309,228.740 102.398 C 228.740 102.486,228.560 102.559,228.340 102.559 C 228.120 102.559,227.889 102.692,227.827 102.854 C 227.765 103.017,227.546 103.150,227.341 103.150 C 227.136 103.150,226.969 103.238,226.969 103.346 C 226.969 103.455,226.843 103.543,226.690 103.543 C 226.378 103.543,224.016 105.797,224.016 106.095 C 224.016 106.200,223.706 106.596,223.327 106.975 C 222.948 107.354,222.638 107.759,222.638 107.876 C 222.638 107.992,222.478 108.259,222.283 108.468 C 221.734 109.058,221.063 110.419,221.063 110.944 C 221.063 111.204,220.997 111.418,220.915 111.419 C 220.679 111.421,220.276 112.431,220.276 113.020 C 220.276 113.317,220.187 113.614,220.079 113.681 C 219.970 113.748,219.882 114.014,219.882 114.272 C 219.882 114.530,219.793 114.795,219.685 114.862 C 219.577 114.929,219.488 115.283,219.488 115.650 C 219.488 116.016,219.400 116.370,219.291 116.437 C 219.183 116.504,219.094 116.814,219.094 117.126 C 219.094 117.438,219.006 117.748,218.898 117.815 C 218.789 117.882,218.701 118.192,218.701 118.504 C 218.701 118.816,218.612 119.126,218.504 119.193 C 218.396 119.260,218.307 119.619,218.307 119.992 C 218.307 120.364,218.219 120.669,218.110 120.669 C 218.002 120.669,217.913 121.024,217.913 121.457 C 217.913 121.890,217.825 122.244,217.717 122.244 C 217.608 122.244,217.520 122.516,217.520 122.849 C 217.520 123.181,217.387 123.586,217.224 123.749 C 217.062 123.911,216.929 124.298,216.929 124.609 C 216.929 124.919,216.841 125.228,216.732 125.295 C 216.624 125.362,216.535 125.672,216.535 125.984 C 216.535 126.296,216.447 126.606,216.339 126.673 C 216.230 126.740,216.142 127.050,216.142 127.362 C 216.142 127.674,216.053 127.984,215.945 128.051 C 215.837 128.118,215.748 128.384,215.748 128.642 C 215.748 128.900,215.659 129.165,215.551 129.232 C 215.443 129.299,215.354 129.570,215.354 129.834 C 215.354 130.099,215.266 130.315,215.157 130.315 C 215.049 130.315,214.961 130.453,214.961 130.621 C 214.961 131.636,212.090 135.433,211.322 135.433 C 211.176 135.433,211.027 135.500,210.991 135.581 C 210.955 135.662,210.482 135.937,209.941 136.193 C 209.400 136.448,208.803 136.736,208.615 136.833 C 208.427 136.929,208.024 137.008,207.719 137.008 C 207.415 137.008,207.081 137.086,206.978 137.182 C 206.875 137.279,205.785 137.412,204.555 137.480 C 203.325 137.547,202.246 137.647,202.157 137.702 C 202.068 137.757,201.944 137.719,201.882 137.617 C 201.819 137.516,200.696 137.425,199.386 137.415 C 198.075 137.406,196.902 137.333,196.779 137.254 C 196.065 136.799,184.774 136.584,182.087 136.975 C 179.266 137.386,179.033 137.427,178.642 137.583 C 177.848 137.900,176.834 138.189,176.512 138.189 C 176.330 138.189,176.181 138.278,176.181 138.386 C 176.181 138.494,176.057 138.583,175.904 138.583 C 175.624 138.583,174.128 139.305,173.664 139.665 C 172.887 140.268,171.517 141.707,171.276 142.175 C 171.122 142.473,170.923 142.717,170.833 142.717 C 170.743 142.717,170.669 142.894,170.669 143.110 C 170.669 143.327,170.581 143.504,170.472 143.504 C 170.364 143.504,170.276 143.681,170.276 143.898 C 170.276 144.633,169.912 144.295,169.489 143.167 C 169.123 142.189,169.098 141.926,169.293 141.149 C 169.561 140.077,170.313 138.386,170.521 138.386 C 170.602 138.386,170.669 138.294,170.669 138.182 C 170.669 137.662,174.520 133.873,175.647 133.284 C 175.941 133.130,176.181 132.931,176.181 132.841 C 176.181 132.751,176.339 132.677,176.531 132.677 C 176.724 132.677,177.009 132.500,177.165 132.283 C 177.321 132.067,177.607 131.890,177.799 131.890 C 177.992 131.890,178.150 131.812,178.150 131.716 C 178.150 131.620,178.305 131.493,178.494 131.433 C 178.913 131.300,179.909 130.701,180.276 130.362 C 180.423 130.226,180.625 130.165,180.725 130.226 C 180.824 130.288,180.906 130.265,180.906 130.176 C 180.906 130.087,181.260 129.861,181.693 129.673 C 182.126 129.485,182.480 129.243,182.480 129.134 C 182.480 129.026,182.657 128.937,182.874 128.937 C 183.091 128.937,183.268 128.848,183.268 128.740 C 183.268 128.632,183.401 128.543,183.563 128.543 C 183.725 128.543,183.858 128.455,183.858 128.346 C 183.858 128.238,184.035 128.150,184.252 128.150 C 184.469 128.150,184.646 128.061,184.646 127.953 C 184.646 127.844,184.823 127.756,185.039 127.756 C 185.256 127.756,185.433 127.667,185.433 127.559 C 185.433 127.451,185.610 127.362,185.827 127.362 C 186.043 127.362,186.220 127.274,186.220 127.165 C 186.220 127.057,186.337 126.969,186.479 126.969 C 186.621 126.969,186.927 126.791,187.159 126.575 C 187.392 126.358,187.719 126.181,187.885 126.181 C 188.052 126.181,188.189 126.093,188.189 125.984 C 188.189 125.876,188.322 125.787,188.484 125.787 C 188.647 125.787,188.780 125.699,188.780 125.591 C 188.780 125.482,188.912 125.394,189.075 125.394 C 189.237 125.394,189.370 125.324,189.370 125.239 C 189.370 125.154,189.636 124.928,189.961 124.736 C 190.933 124.162,190.665 122.638,189.593 122.638 C 189.375 122.638,189.142 122.549,189.075 122.441 C 189.008 122.333,188.515 122.244,187.981 122.244 C 187.446 122.244,187.008 122.333,187.008 122.441 C 187.008 122.549,186.874 122.638,186.710 122.638 C 186.159 122.638,183.465 124.848,183.465 125.300 C 183.465 125.485,182.029 126.976,181.938 126.885 C 181.809 126.757,182.341 125.394,182.520 125.394 C 182.606 125.394,182.677 125.217,182.677 125.000 C 182.677 124.783,182.766 124.606,182.874 124.606 C 182.982 124.606,183.071 124.429,183.071 124.213 C 183.071 123.996,183.159 123.819,183.268 123.819 C 183.376 123.819,183.465 123.703,183.465 123.561 C 183.465 123.419,183.642 123.112,183.858 122.880 C 184.075 122.648,184.252 122.375,184.252 122.275 C 184.252 121.990,186.651 119.619,187.254 119.307 C 187.552 119.154,187.795 118.954,187.795 118.864 C 187.795 118.774,187.911 118.701,188.053 118.701 C 188.195 118.701,188.502 118.524,188.734 118.307 C 188.967 118.091,189.293 117.913,189.460 117.913 C 189.627 117.913,189.764 117.846,189.764 117.763 C 189.764 117.680,190.118 117.459,190.551 117.271 C 190.984 117.084,191.339 116.841,191.339 116.733 C 191.339 116.624,191.516 116.535,191.732 116.535 C 191.949 116.535,192.126 116.447,192.126 116.339 C 192.126 116.230,192.303 116.142,192.520 116.142 C 192.736 116.142,192.913 116.053,192.913 115.945 C 192.913 115.837,193.135 115.748,193.406 115.748 C 193.676 115.748,193.898 115.659,193.898 115.551 C 193.898 115.443,194.119 115.354,194.390 115.354 C 194.660 115.354,194.882 115.266,194.882 115.157 C 194.882 115.049,195.103 114.961,195.374 114.961 C 195.645 114.961,195.866 114.872,195.866 114.764 C 195.866 114.656,196.038 114.567,196.248 114.567 C 196.458 114.567,196.685 114.478,196.752 114.370 C 196.819 114.262,197.090 114.173,197.354 114.173 C 197.618 114.173,197.835 114.085,197.835 113.976 C 197.835 113.868,198.007 113.780,198.217 113.780 C 198.427 113.780,198.654 113.691,198.720 113.583 C 198.787 113.474,199.064 113.386,199.334 113.386 C 199.612 113.386,199.773 113.300,199.705 113.189 C 199.636 113.077,199.801 112.992,200.087 112.992 C 200.364 112.992,200.591 112.904,200.591 112.795 C 200.591 112.687,200.849 112.598,201.165 112.598 C 201.480 112.598,201.768 112.532,201.804 112.451 C 201.863 112.319,203.699 111.295,204.871 110.740 C 205.113 110.626,205.313 110.465,205.313 110.384 C 205.314 110.303,205.492 110.236,205.709 110.236 C 205.925 110.236,206.102 110.169,206.102 110.087 C 206.102 110.006,206.390 109.813,206.742 109.659 C 207.094 109.506,207.525 109.218,207.700 109.021 C 207.875 108.823,208.119 108.661,208.241 108.661 C 208.364 108.661,208.792 108.351,209.194 107.972 C 209.596 107.594,209.980 107.283,210.049 107.283 C 210.199 107.283,212.992 104.579,212.992 104.433 C 212.992 104.377,213.346 103.966,213.780 103.520 C 214.213 103.074,214.567 102.606,214.567 102.480 C 214.567 102.355,214.744 102.125,214.961 101.969 C 215.177 101.812,215.354 101.527,215.354 101.334 C 215.354 101.142,215.443 100.984,215.551 100.984 C 215.659 100.984,215.748 100.807,215.748 100.591 C 215.748 100.374,215.837 100.197,215.945 100.197 C 216.053 100.197,216.142 100.020,216.142 99.803 C 216.142 99.587,216.230 99.409,216.339 99.409 C 216.447 99.409,216.535 99.193,216.535 98.929 C 216.535 98.665,216.624 98.394,216.732 98.327 C 216.841 98.260,216.929 97.950,216.929 97.638 C 216.929 97.326,217.018 97.016,217.126 96.949 C 217.244 96.876,217.323 95.598,217.323 93.776 C 217.323 91.792,217.254 90.767,217.126 90.846 C 217.007 90.920,216.929 90.652,216.929 90.169 C 216.929 89.730,216.841 89.370,216.732 89.370 C 216.624 89.370,216.535 89.149,216.535 88.878 C 216.535 88.607,216.447 88.386,216.339 88.386 C 216.230 88.386,216.142 88.202,216.142 87.978 C 216.142 87.136,214.876 86.607,214.645 87.352 C 214.586 87.542,214.456 87.851,214.356 88.039 C 214.255 88.227,214.173 88.554,214.173 88.765 C 214.173 88.977,214.085 89.205,213.976 89.272 C 213.868 89.339,213.780 89.654,213.780 89.972 C 213.780 90.291,213.691 90.551,213.583 90.551 C 213.474 90.551,213.386 90.773,213.386 91.043 C 213.386 91.314,213.297 91.535,213.189 91.535 C 213.081 91.535,212.992 91.713,212.992 91.929 C 212.992 92.146,212.904 92.323,212.795 92.323 C 212.687 92.323,212.598 92.500,212.598 92.717 C 212.598 92.933,212.510 93.110,212.402 93.110 C 212.293 93.110,212.205 93.287,212.205 93.504 C 212.205 93.720,212.131 93.898,212.041 93.898 C 211.951 93.898,211.752 94.141,211.598 94.439 C 211.445 94.737,211.164 95.152,210.974 95.362 C 210.785 95.572,210.630 95.824,210.630 95.923 C 210.630 96.021,210.187 96.536,209.646 97.066 C 209.104 97.596,208.661 98.133,208.661 98.260 C 208.661 98.387,208.606 98.436,208.539 98.368 C 208.472 98.301,208.080 98.596,207.669 99.025 C 207.257 99.453,206.847 99.803,206.758 99.804 C 206.668 99.804,206.284 100.069,205.906 100.394 C 205.527 100.718,205.155 100.984,205.079 100.984 C 205.003 100.984,204.547 101.250,204.066 101.575 C 203.585 101.900,203.131 102.165,203.059 102.165 C 202.986 102.165,202.636 102.387,202.281 102.657 C 201.926 102.928,201.534 103.150,201.409 103.150 C 201.283 103.150,201.181 103.222,201.181 103.310 C 201.181 103.398,200.871 103.591,200.492 103.740 C 200.113 103.889,199.803 104.083,199.803 104.171 C 199.803 104.259,199.626 104.331,199.409 104.331 C 199.193 104.331,199.016 104.419,199.016 104.528 C 199.016 104.636,198.882 104.724,198.718 104.724 C 198.554 104.724,198.244 104.813,198.029 104.921 C 197.814 105.030,197.462 105.207,197.247 105.315 C 197.032 105.423,196.716 105.512,196.546 105.512 C 196.376 105.512,196.291 105.600,196.358 105.709 C 196.427 105.820,196.262 105.906,195.976 105.906 C 195.699 105.906,195.472 105.994,195.472 106.102 C 195.472 106.211,195.295 106.299,195.079 106.299 C 194.862 106.299,194.685 106.388,194.685 106.496 C 194.685 106.604,194.508 106.693,194.291 106.693 C 194.075 106.693,193.898 106.781,193.898 106.890 C 193.898 106.998,193.681 107.087,193.417 107.087 C 193.153 107.087,192.882 107.175,192.815 107.283 C 192.748 107.392,192.521 107.480,192.311 107.480 C 192.101 107.480,191.929 107.569,191.929 107.677 C 191.929 107.785,191.757 107.874,191.547 107.874 C 191.337 107.874,191.110 107.963,191.043 108.071 C 190.976 108.179,190.750 108.268,190.540 108.268 C 190.329 108.268,190.157 108.356,190.157 108.465 C 190.157 108.573,189.980 108.661,189.764 108.661 C 189.547 108.661,189.370 108.750,189.370 108.858 C 189.370 108.967,189.250 109.055,189.102 109.055 C 188.843 109.055,186.419 110.221,186.220 110.441 C 186.166 110.501,185.812 110.766,185.433 111.028 C 184.335 111.790,181.890 114.370,181.890 114.766 C 181.890 114.873,181.801 114.961,181.693 114.961 C 181.585 114.961,181.496 115.074,181.496 115.212 C 181.496 115.351,181.319 115.592,181.102 115.748 C 180.886 115.904,180.709 116.189,180.709 116.382 C 180.709 116.575,180.620 116.732,180.512 116.732 C 180.404 116.732,180.315 116.909,180.315 117.126 C 180.315 117.343,180.226 117.520,180.118 117.520 C 180.010 117.520,179.921 117.697,179.921 117.913 C 179.921 118.132,179.790 118.307,179.626 118.307 C 179.464 118.307,179.331 118.479,179.331 118.689 C 179.331 118.899,179.242 119.126,179.134 119.193 C 179.026 119.260,178.937 119.526,178.937 119.783 C 178.937 120.041,178.858 120.301,178.762 120.361 C 178.598 120.462,178.535 120.742,178.227 122.736 C 178.161 123.169,178.027 123.553,177.931 123.589 C 177.835 123.625,177.756 123.740,177.756 123.844 C 177.756 124.067,177.067 124.776,176.400 125.240 C 175.053 126.177,170.276 130.717,170.276 131.060 C 170.276 131.146,169.921 131.608,169.488 132.087 C 169.055 132.565,168.701 133.071,168.701 133.211 C 168.701 133.350,168.612 133.465,168.504 133.465 C 168.396 133.465,168.307 133.603,168.307 133.771 C 168.307 133.940,168.219 134.024,168.110 133.957 C 168.002 133.890,167.913 134.017,167.913 134.240 C 167.913 134.463,167.825 134.646,167.717 134.646 C 167.608 134.646,167.520 134.823,167.520 135.039 C 167.520 135.256,167.435 135.433,167.332 135.433 C 167.159 135.433,166.955 135.819,166.366 137.263 C 166.061 138.011,166.065 144.719,166.372 145.655 C 166.788 146.929,167.199 147.835,167.361 147.835 C 167.448 147.835,167.520 148.012,167.520 148.228 C 167.520 148.445,167.608 148.622,167.717 148.622 C 167.825 148.622,167.913 148.734,167.913 148.870 C 167.913 149.218,169.139 150.593,169.447 150.592 C 169.587 150.591,170.385 149.902,171.219 149.061 C 172.053 148.220,173.046 147.316,173.425 147.053 C 173.804 146.789,174.247 146.436,174.409 146.268 C 174.572 146.100,174.948 145.837,175.246 145.684 C 175.544 145.531,175.787 145.332,175.787 145.242 C 175.787 145.152,175.970 145.079,176.193 145.079 C 176.416 145.079,176.543 144.990,176.476 144.882 C 176.409 144.774,176.479 144.685,176.631 144.685 C 176.784 144.685,177.210 144.532,177.578 144.344 C 178.546 143.851,179.560 143.510,180.069 143.507 C 180.313 143.505,180.512 143.424,180.512 143.326 C 180.512 142.717,192.457 142.663,197.441 143.250 C 198.955 143.428,210.797 143.419,211.516 143.239 C 212.811 142.915,213.700 142.664,214.075 142.517 C 214.291 142.432,214.768 142.250,215.134 142.111 C 215.500 141.973,216.005 141.654,216.257 141.403 C 216.508 141.151,216.851 140.945,217.019 140.945 C 217.186 140.945,217.323 140.856,217.323 140.748 C 217.323 140.640,217.439 140.551,217.581 140.551 C 217.723 140.551,218.029 140.374,218.262 140.157 C 218.494 139.941,218.739 139.764,218.805 139.764 C 219.028 139.764,219.471 139.221,219.348 139.098 C 219.281 139.031,219.367 138.976,219.541 138.976 C 219.714 138.976,219.906 138.821,219.969 138.632 C 220.031 138.442,220.346 137.989,220.668 137.624 C 220.991 137.259,221.216 136.899,221.169 136.823 C 221.122 136.748,221.256 136.562,221.467 136.410 C 221.678 136.258,221.850 135.976,221.850 135.783 C 221.850 135.591,221.939 135.433,222.047 135.433 C 222.156 135.433,222.244 135.256,222.244 135.039 C 222.244 134.823,222.333 134.646,222.441 134.646 C 222.549 134.646,222.638 134.469,222.638 134.252 C 222.638 134.035,222.726 133.858,222.835 133.858 C 222.943 133.858,223.031 133.724,223.031 133.560 C 223.031 133.396,223.110 133.109,223.205 132.921 C 223.301 132.733,223.478 132.335,223.599 132.037 C 223.720 131.740,223.918 131.252,224.039 130.955 C 224.160 130.657,224.337 130.260,224.432 130.072 C 224.528 129.884,224.606 129.551,224.606 129.333 C 224.606 129.115,224.695 128.937,224.803 128.937 C 224.911 128.937,225.000 128.671,225.000 128.346 C 225.000 128.022,225.089 127.756,225.197 127.756 C 225.305 127.756,225.394 127.490,225.394 127.165 C 225.394 126.841,225.482 126.575,225.591 126.575 C 225.699 126.575,225.787 126.314,225.787 125.996 C 225.787 125.677,225.876 125.362,225.984 125.295 C 226.093 125.228,226.181 124.957,226.181 124.693 C 226.181 124.429,226.270 124.213,226.378 124.213 C 226.486 124.213,226.575 124.034,226.575 123.816 C 226.575 123.598,226.677 123.222,226.802 122.980 C 227.292 122.032,227.362 121.842,227.362 121.459 C 227.362 121.241,227.451 121.063,227.559 121.063 C 227.667 121.063,227.756 120.847,227.756 120.582 C 227.756 120.318,227.844 120.047,227.953 119.980 C 228.061 119.913,228.150 119.687,228.150 119.477 C 228.150 119.266,228.238 119.094,228.346 119.094 C 228.455 119.094,228.543 118.873,228.543 118.602 C 228.543 118.332,228.610 118.110,228.691 118.109 C 228.868 118.107,229.331 117.154,229.331 116.791 C 229.331 116.651,229.404 116.535,229.494 116.535 C 229.584 116.535,229.784 116.292,229.937 115.994 C 230.091 115.696,230.394 115.270,230.610 115.047 C 230.827 114.824,231.225 114.360,231.496 114.016 C 231.767 113.671,232.099 113.389,232.234 113.388 C 232.370 113.387,232.480 113.297,232.480 113.189 C 232.480 113.081,232.613 112.992,232.776 112.992 C 232.938 112.992,233.071 112.904,233.071 112.795 C 233.071 112.687,233.204 112.598,233.366 112.598 C 233.529 112.598,233.661 112.510,233.661 112.402 C 233.661 112.293,233.794 112.205,233.957 112.205 C 234.119 112.205,234.252 112.116,234.252 112.008 C 234.252 111.900,234.429 111.811,234.646 111.811 C 234.862 111.811,235.040 111.745,235.041 111.663 C 235.043 111.487,235.996 111.024,236.358 111.024 C 236.499 111.024,236.614 110.935,236.614 110.827 C 236.614 110.719,236.830 110.630,237.095 110.630 C 237.359 110.630,237.630 110.541,237.697 110.433 C 237.764 110.325,238.030 110.236,238.287 110.236 C 238.545 110.236,238.811 110.148,238.878 110.039 C 238.945 109.931,239.211 109.843,239.469 109.843 C 239.726 109.843,239.992 109.754,240.059 109.646 C 240.126 109.537,240.382 109.449,240.628 109.449 C 240.875 109.449,241.137 109.388,241.211 109.314 C 241.408 109.117,242.757 108.668,243.162 108.664 C 243.353 108.663,243.663 108.581,243.851 108.484 C 244.039 108.386,244.592 108.200,245.079 108.071 C 245.566 107.941,246.118 107.756,246.306 107.658 C 246.494 107.560,246.866 107.480,247.131 107.480 C 247.397 107.480,247.669 107.392,247.736 107.283 C 247.803 107.175,248.113 107.087,248.425 107.087 C 248.737 107.087,249.047 106.998,249.114 106.890 C 249.181 106.781,249.453 106.693,249.719 106.693 C 249.985 106.693,250.356 106.613,250.544 106.515 C 250.732 106.418,251.284 106.232,251.772 106.102 C 252.259 105.973,252.811 105.787,252.999 105.689 C 253.187 105.592,253.565 105.512,253.839 105.512 C 254.112 105.512,254.490 105.434,254.678 105.339 C 255.245 105.052,256.399 104.724,256.840 104.724 C 257.069 104.724,257.388 104.592,257.551 104.429 C 257.713 104.267,258.118 104.134,258.451 104.134 C 258.783 104.134,259.055 104.045,259.055 103.937 C 259.055 103.829,259.360 103.740,259.732 103.740 C 260.105 103.740,260.465 103.652,260.531 103.543 C 260.598 103.435,260.908 103.346,261.220 103.346 C 261.532 103.346,261.843 103.258,261.909 103.150 C 261.976 103.041,262.341 102.953,262.720 102.953 C 263.129 102.953,263.360 102.873,263.287 102.756 C 263.214 102.637,263.478 102.559,263.953 102.559 C 264.386 102.559,264.795 102.470,264.862 102.362 C 264.929 102.254,265.244 102.165,265.563 102.165 C 265.881 102.165,266.142 102.077,266.142 101.969 C 266.142 101.860,266.496 101.772,266.929 101.772 C 267.362 101.772,267.717 101.683,267.717 101.575 C 267.717 101.467,268.021 101.378,268.394 101.378 C 268.766 101.378,269.126 101.289,269.193 101.181 C 269.260 101.073,269.619 100.984,269.992 100.984 C 270.364 100.984,270.669 100.905,270.669 100.809 C 270.669 100.643,270.891 100.585,272.689 100.279 C 273.096 100.210,273.478 100.075,273.537 99.978 C 273.597 99.882,273.950 99.803,274.323 99.803 C 274.695 99.803,275.000 99.715,275.000 99.606 C 275.000 99.498,275.305 99.409,275.677 99.409 C 276.050 99.409,276.409 99.321,276.476 99.213 C 276.543 99.104,276.898 99.016,277.264 99.016 C 277.630 99.016,277.984 98.927,278.051 98.819 C 278.118 98.711,278.428 98.622,278.740 98.622 C 279.052 98.622,279.362 98.533,279.429 98.425 C 279.496 98.317,279.856 98.228,280.228 98.228 C 280.601 98.228,280.906 98.140,280.906 98.031 C 280.906 97.923,281.210 97.835,281.583 97.835 C 281.955 97.835,282.315 97.746,282.382 97.638 C 282.449 97.530,282.803 97.441,283.169 97.441 C 283.535 97.441,283.890 97.352,283.957 97.244 C 284.024 97.136,284.383 97.047,284.756 97.047 C 285.128 97.047,285.433 96.959,285.433 96.850 C 285.433 96.742,285.738 96.654,286.110 96.654 C 286.483 96.654,286.836 96.575,286.896 96.478 C 286.956 96.382,287.293 96.256,287.646 96.197 C 288.710 96.021,289.447 95.846,289.862 95.669 C 290.277 95.493,291.014 95.317,292.079 95.141 C 292.431 95.083,292.769 94.956,292.828 94.860 C 292.888 94.764,293.236 94.685,293.602 94.685 C 293.969 94.685,294.323 94.596,294.390 94.488 C 294.457 94.380,294.799 94.291,295.149 94.291 C 295.500 94.291,295.872 94.210,295.974 94.111 C 296.077 94.011,296.427 93.883,296.752 93.825 C 297.548 93.684,298.245 93.503,298.720 93.315 C 299.099 93.165,300.544 92.811,301.574 92.616 C 301.844 92.565,302.095 92.434,302.132 92.325 C 302.168 92.215,302.545 92.126,302.969 92.126 C 303.393 92.126,303.740 92.037,303.740 91.929 C 303.740 91.821,304.045 91.732,304.418 91.732 C 304.790 91.732,305.150 91.644,305.217 91.535 C 305.283 91.427,305.638 91.339,306.004 91.339 C 306.370 91.339,306.724 91.250,306.791 91.142 C 306.858 91.033,307.218 90.945,307.590 90.945 C 307.963 90.945,308.268 90.856,308.268 90.748 C 308.268 90.640,308.573 90.551,308.945 90.551 C 309.318 90.551,309.677 90.463,309.744 90.354 C 309.811 90.246,310.165 90.157,310.531 90.157 C 310.898 90.157,311.252 90.069,311.319 89.961 C 311.386 89.852,311.740 89.764,312.106 89.764 C 312.472 89.764,312.827 89.675,312.894 89.567 C 312.961 89.459,313.320 89.370,313.693 89.370 C 314.065 89.370,314.370 89.281,314.370 89.173 C 314.370 89.065,314.675 88.976,315.047 88.976 C 315.420 88.976,315.780 88.888,315.846 88.780 C 315.913 88.671,316.273 88.583,316.645 88.583 C 317.018 88.583,317.323 88.494,317.323 88.386 C 317.323 88.278,317.677 88.189,318.110 88.189 C 318.543 88.189,318.898 88.100,318.898 87.992 C 318.898 87.884,319.252 87.795,319.685 87.795 C 320.118 87.795,320.472 87.707,320.472 87.598 C 320.472 87.490,320.827 87.402,321.260 87.402 C 321.693 87.402,322.047 87.313,322.047 87.205 C 322.047 87.096,322.352 87.008,322.725 87.008 C 323.097 87.008,323.451 86.929,323.510 86.833 C 323.612 86.667,324.111 86.551,325.838 86.291 C 326.245 86.229,326.626 86.100,326.686 86.003 C 326.746 85.906,327.100 85.827,327.472 85.827 C 327.845 85.827,328.150 85.738,328.150 85.630 C 328.150 85.522,328.497 85.433,328.921 85.433 C 329.345 85.433,329.721 85.348,329.757 85.245 C 329.793 85.141,330.161 85.034,330.575 85.007 C 330.988 84.979,331.370 84.887,331.423 84.801 C 331.476 84.716,331.775 84.646,332.087 84.646 C 332.399 84.646,332.709 84.557,332.776 84.449 C 332.843 84.341,333.197 84.252,333.563 84.252 C 333.929 84.252,334.283 84.163,334.350 84.055 C 334.417 83.947,334.772 83.858,335.138 83.858 C 335.504 83.858,335.858 83.770,335.925 83.661 C 335.992 83.553,336.346 83.465,336.713 83.465 C 337.079 83.465,337.433 83.376,337.500 83.268 C 337.567 83.159,337.921 83.071,338.287 83.071 C 338.654 83.071,339.008 82.982,339.075 82.874 C 339.142 82.766,339.496 82.677,339.862 82.677 C 340.228 82.677,340.583 82.589,340.650 82.480 C 340.717 82.372,341.058 82.283,341.409 82.283 C 341.760 82.283,342.131 82.201,342.234 82.101 C 342.337 82.001,342.687 81.882,343.012 81.837 C 343.337 81.792,343.735 81.699,343.898 81.629 C 344.060 81.560,344.769 81.362,345.472 81.190 C 346.176 81.017,347.062 80.800,347.441 80.707 C 349.556 80.188,349.918 80.079,350.089 79.910 C 350.191 79.808,350.563 79.724,350.914 79.724 C 351.264 79.724,351.606 79.636,351.673 79.528 C 351.740 79.419,352.050 79.331,352.362 79.331 C 352.674 79.331,352.984 79.242,353.051 79.134 C 353.118 79.026,353.478 78.937,353.850 78.937 C 354.223 78.937,354.528 78.848,354.528 78.740 C 354.528 78.632,354.882 78.543,355.315 78.543 C 355.748 78.543,356.102 78.455,356.102 78.346 C 356.102 78.238,356.457 78.150,356.890 78.150 C 357.323 78.150,357.677 78.061,357.677 77.953 C 357.677 77.844,357.982 77.756,358.355 77.756 C 358.727 77.756,359.087 77.667,359.154 77.559 C 359.220 77.451,359.580 77.362,359.953 77.362 C 360.325 77.362,360.630 77.283,360.630 77.187 C 360.630 77.090,360.962 76.955,361.368 76.886 C 363.153 76.582,363.395 76.522,363.498 76.356 C 363.557 76.260,363.861 76.181,364.173 76.181 C 364.485 76.181,364.795 76.093,364.862 75.984 C 364.929 75.876,365.244 75.787,365.563 75.787 C 365.881 75.787,366.142 75.699,366.142 75.591 C 366.142 75.482,366.407 75.394,366.732 75.394 C 367.057 75.394,367.323 75.305,367.323 75.197 C 367.323 75.089,367.589 75.000,367.913 75.000 C 368.238 75.000,368.504 74.911,368.504 74.803 C 368.504 74.695,368.682 74.606,368.900 74.606 C 369.118 74.606,369.450 74.520,369.638 74.415 C 369.826 74.311,370.645 73.913,371.457 73.531 C 372.868 72.869,374.002 72.258,374.213 72.047 C 374.267 71.993,374.510 71.838,374.754 71.703 C 374.998 71.567,375.395 71.346,375.638 71.211 C 375.880 71.075,376.223 70.810,376.399 70.620 C 376.575 70.431,376.864 70.276,377.041 70.276 C 377.218 70.276,377.362 70.202,377.362 70.112 C 377.362 70.022,377.605 69.823,377.902 69.669 C 378.199 69.515,378.726 69.109,379.073 68.766 C 379.421 68.424,379.886 68.085,380.108 68.015 C 380.330 67.944,380.512 67.798,380.512 67.689 C 380.512 67.480,380.999 66.929,381.183 66.929 C 381.332 66.929,382.724 65.647,383.728 64.587 C 384.178 64.110,385.012 63.248,385.581 62.672 C 386.149 62.095,386.614 61.545,386.614 61.451 C 386.614 61.356,386.880 61.001,387.205 60.661 C 387.530 60.321,387.795 59.929,387.795 59.789 C 387.795 59.650,387.972 59.408,388.189 59.252 C 388.406 59.096,388.583 58.851,388.583 58.708 C 388.583 58.565,388.760 58.258,388.976 58.026 C 389.193 57.793,389.370 57.487,389.370 57.345 C 389.370 57.203,389.459 57.087,389.567 57.087 C 389.675 57.087,389.764 56.954,389.764 56.791 C 389.764 56.629,389.852 56.496,389.961 56.496 C 390.069 56.496,390.157 56.380,390.157 56.238 C 390.157 56.096,390.335 55.790,390.551 55.557 C 390.768 55.325,390.945 55.039,390.945 54.921 C 390.945 54.804,391.122 54.518,391.339 54.285 C 391.555 54.053,391.732 53.747,391.732 53.605 C 391.732 53.463,391.821 53.346,391.929 53.346 C 392.037 53.346,392.126 53.210,392.126 53.043 C 392.126 52.876,392.303 52.549,392.520 52.317 C 392.736 52.084,392.913 51.778,392.913 51.636 C 392.913 51.494,393.002 51.378,393.110 51.378 C 393.219 51.378,393.307 51.294,393.307 51.191 C 393.307 51.089,393.529 50.766,393.799 50.474 C 394.070 50.181,394.291 49.823,394.291 49.676 C 394.291 49.529,394.369 49.409,394.464 49.409 C 394.559 49.409,394.747 49.144,394.882 48.819 C 395.016 48.494,395.182 48.227,395.250 48.225 C 395.318 48.224,395.591 47.781,395.856 47.241 C 396.121 46.701,396.408 46.260,396.495 46.260 C 396.582 46.260,396.654 46.127,396.654 45.965 C 396.654 45.802,396.742 45.669,396.850 45.669 C 396.959 45.669,397.047 45.536,397.047 45.374 C 397.047 45.212,397.136 45.079,397.244 45.079 C 397.352 45.079,397.441 44.902,397.441 44.685 C 397.441 44.469,397.530 44.291,397.638 44.291 C 397.746 44.291,397.835 44.158,397.835 43.996 C 397.835 43.834,397.923 43.701,398.031 43.701 C 398.140 43.701,398.228 43.524,398.228 43.307 C 398.228 43.091,398.317 42.913,398.425 42.913 C 398.533 42.913,398.622 42.736,398.622 42.520 C 398.622 42.303,398.711 42.126,398.819 42.126 C 398.927 42.126,399.016 41.860,399.016 41.535 C 399.016 40.931,398.238 40.648,397.933 41.142 M356.398 84.449 C 356.331 84.557,355.976 84.646,355.610 84.646 C 355.244 84.646,354.890 84.734,354.823 84.843 C 354.756 84.951,354.402 85.039,354.035 85.039 C 353.669 85.039,353.315 85.128,353.248 85.236 C 353.181 85.344,352.827 85.433,352.461 85.433 C 352.094 85.433,351.740 85.522,351.673 85.630 C 351.606 85.738,351.252 85.827,350.886 85.827 C 350.520 85.827,350.165 85.915,350.098 86.024 C 350.032 86.132,349.677 86.220,349.311 86.220 C 348.945 86.220,348.597 86.299,348.537 86.396 C 348.435 86.561,347.936 86.677,346.209 86.938 C 345.803 86.999,345.421 87.129,345.361 87.226 C 345.301 87.322,344.953 87.402,344.587 87.402 C 344.220 87.402,343.866 87.490,343.799 87.598 C 343.732 87.707,343.373 87.795,343.000 87.795 C 342.628 87.795,342.323 87.884,342.323 87.992 C 342.323 88.100,341.974 88.189,341.547 88.189 C 341.120 88.189,340.723 88.268,340.663 88.364 C 340.604 88.460,340.266 88.587,339.913 88.645 C 338.844 88.822,338.111 88.997,337.697 89.175 C 337.480 89.267,337.037 89.388,336.713 89.443 C 336.388 89.498,335.723 89.643,335.236 89.766 C 334.749 89.889,334.062 90.037,333.709 90.095 C 333.356 90.153,333.019 90.280,332.959 90.376 C 332.899 90.472,332.607 90.551,332.309 90.551 C 332.012 90.551,331.596 90.681,331.386 90.840 C 331.176 90.999,330.721 91.132,330.376 91.135 C 330.030 91.139,329.693 91.230,329.626 91.339 C 329.559 91.447,329.205 91.535,328.839 91.535 C 328.472 91.535,328.118 91.624,328.051 91.732 C 327.984 91.841,327.625 91.929,327.252 91.929 C 326.880 91.929,326.575 92.018,326.575 92.126 C 326.575 92.234,326.220 92.323,325.787 92.323 C 325.354 92.323,325.000 92.411,325.000 92.520 C 325.000 92.628,324.646 92.717,324.213 92.717 C 323.780 92.717,323.425 92.805,323.425 92.913 C 323.425 93.022,323.071 93.110,322.638 93.110 C 322.205 93.110,321.850 93.199,321.850 93.307 C 321.850 93.415,321.546 93.504,321.173 93.504 C 320.800 93.504,320.441 93.593,320.374 93.701 C 320.307 93.809,319.953 93.898,319.587 93.898 C 319.220 93.898,318.866 93.986,318.799 94.094 C 318.732 94.203,318.378 94.291,318.012 94.291 C 317.646 94.291,317.291 94.380,317.224 94.488 C 317.157 94.596,316.803 94.685,316.437 94.685 C 316.071 94.685,315.717 94.774,315.650 94.882 C 315.583 94.990,315.228 95.079,314.862 95.079 C 314.496 95.079,314.142 95.167,314.075 95.276 C 314.008 95.384,313.648 95.472,313.276 95.472 C 312.903 95.472,312.598 95.561,312.598 95.669 C 312.598 95.778,312.244 95.866,311.811 95.866 C 311.378 95.866,311.024 95.955,311.024 96.063 C 311.024 96.171,310.669 96.260,310.236 96.260 C 309.803 96.260,309.449 96.348,309.449 96.457 C 309.449 96.565,309.094 96.654,308.661 96.654 C 308.228 96.654,307.874 96.742,307.874 96.850 C 307.874 96.959,307.569 97.047,307.197 97.047 C 306.824 97.047,306.465 97.136,306.398 97.244 C 306.331 97.352,305.976 97.441,305.610 97.441 C 305.244 97.441,304.890 97.530,304.823 97.638 C 304.756 97.746,304.402 97.835,304.035 97.835 C 303.669 97.835,303.315 97.923,303.248 98.031 C 303.181 98.140,302.827 98.228,302.461 98.228 C 302.094 98.228,301.740 98.317,301.673 98.425 C 301.606 98.533,301.247 98.622,300.874 98.622 C 300.502 98.622,300.197 98.711,300.197 98.819 C 300.197 98.927,299.848 99.016,299.421 99.016 C 298.994 99.016,298.591 99.104,298.524 99.213 C 298.457 99.321,298.097 99.409,297.725 99.409 C 297.352 99.409,297.047 99.498,297.047 99.606 C 297.047 99.715,296.693 99.803,296.260 99.803 C 295.827 99.803,295.472 99.892,295.472 100.000 C 295.472 100.108,295.168 100.197,294.795 100.197 C 294.423 100.197,294.063 100.285,293.996 100.394 C 293.929 100.502,293.575 100.591,293.209 100.591 C 292.843 100.591,292.488 100.679,292.421 100.787 C 292.354 100.896,292.000 100.984,291.634 100.984 C 291.268 100.984,290.913 101.073,290.846 101.181 C 290.780 101.289,290.425 101.378,290.059 101.378 C 289.693 101.378,289.345 101.457,289.285 101.553 C 289.226 101.649,288.888 101.776,288.535 101.834 C 288.182 101.892,287.495 102.041,287.008 102.165 C 286.521 102.289,285.837 102.438,285.489 102.496 C 285.141 102.553,284.754 102.724,284.628 102.875 C 284.503 103.026,284.101 103.150,283.736 103.150 C 283.370 103.150,283.071 103.238,283.071 103.346 C 283.071 103.455,282.717 103.543,282.283 103.543 C 281.850 103.543,281.496 103.632,281.496 103.740 C 281.496 103.848,281.147 103.937,280.720 103.937 C 280.294 103.937,279.890 104.026,279.823 104.134 C 279.756 104.242,279.396 104.331,279.024 104.331 C 278.651 104.331,278.346 104.419,278.346 104.528 C 278.346 104.636,277.992 104.724,277.559 104.724 C 277.126 104.724,276.772 104.813,276.772 104.921 C 276.772 105.030,276.417 105.118,275.984 105.118 C 275.551 105.118,275.197 105.207,275.197 105.315 C 275.197 105.423,274.892 105.512,274.519 105.512 C 274.147 105.512,273.787 105.600,273.720 105.709 C 273.654 105.817,273.299 105.906,272.933 105.906 C 272.567 105.906,272.213 105.994,272.146 106.102 C 272.079 106.211,271.769 106.299,271.457 106.299 C 271.145 106.299,270.835 106.388,270.768 106.496 C 270.701 106.604,270.297 106.693,269.870 106.693 C 269.444 106.693,269.094 106.781,269.094 106.890 C 269.094 106.998,268.740 107.087,268.307 107.087 C 267.874 107.087,267.520 107.175,267.520 107.283 C 267.520 107.392,267.165 107.480,266.732 107.480 C 266.299 107.480,265.945 107.559,265.945 107.656 C 265.945 107.821,265.491 107.932,263.729 108.198 C 263.322 108.259,262.941 108.389,262.881 108.485 C 262.821 108.582,262.472 108.661,262.106 108.661 C 261.740 108.661,261.386 108.750,261.319 108.858 C 261.252 108.967,260.892 109.055,260.520 109.055 C 260.147 109.055,259.843 109.144,259.843 109.252 C 259.843 109.360,259.488 109.449,259.055 109.449 C 258.622 109.449,258.268 109.528,258.268 109.626 C 258.268 109.723,257.891 109.852,257.431 109.912 C 255.827 110.121,255.114 110.281,255.006 110.455 C 254.947 110.551,254.593 110.630,254.221 110.630 C 253.848 110.630,253.543 110.719,253.543 110.827 C 253.543 110.935,253.327 111.024,253.063 111.024 C 252.799 111.024,252.528 111.112,252.461 111.220 C 252.394 111.329,251.995 111.417,251.575 111.417 C 251.155 111.417,250.756 111.506,250.689 111.614 C 250.622 111.722,250.268 111.811,249.902 111.811 C 249.535 111.811,249.181 111.900,249.114 112.008 C 249.047 112.116,248.776 112.205,248.512 112.205 C 248.248 112.205,248.031 112.293,248.031 112.402 C 248.031 112.510,247.771 112.598,247.453 112.598 C 247.134 112.598,246.819 112.687,246.752 112.795 C 246.685 112.904,246.464 112.992,246.260 112.992 C 245.927 112.992,243.746 114.070,243.504 114.354 C 243.450 114.417,243.162 114.595,242.864 114.748 C 242.566 114.902,242.323 115.145,242.323 115.289 C 242.323 115.433,242.235 115.551,242.128 115.551 C 241.873 115.551,241.226 116.080,240.470 116.904 C 240.136 117.269,239.397 118.042,238.829 118.622 C 238.260 119.202,237.795 119.767,237.795 119.877 C 237.795 119.988,237.441 120.443,237.008 120.890 C 236.575 121.336,236.220 121.804,236.220 121.929 C 236.220 122.055,236.043 122.285,235.827 122.441 C 235.610 122.597,235.433 122.950,235.433 123.224 C 235.433 123.814,236.120 124.344,236.488 124.039 C 236.618 123.931,237.279 123.823,237.957 123.798 C 238.635 123.774,239.236 123.680,239.292 123.589 C 239.348 123.499,239.959 123.425,240.650 123.425 C 241.341 123.425,241.961 123.337,242.028 123.228 C 242.094 123.120,242.670 123.031,243.307 123.031 C 243.944 123.031,244.520 122.943,244.587 122.835 C 244.654 122.726,245.185 122.638,245.768 122.638 C 246.350 122.638,246.873 122.563,246.929 122.472 C 246.986 122.381,247.631 122.287,248.362 122.264 C 249.094 122.240,249.787 122.143,249.901 122.047 C 250.016 121.952,250.617 121.854,251.236 121.829 C 251.855 121.804,252.362 121.710,252.362 121.620 C 252.362 121.530,252.920 121.457,253.602 121.457 C 254.284 121.457,254.927 121.376,255.030 121.277 C 255.132 121.178,255.704 121.049,256.299 120.990 C 257.319 120.889,258.393 120.736,261.417 120.265 C 262.121 120.155,263.140 120.016,263.681 119.955 C 264.222 119.895,264.750 119.765,264.852 119.667 C 264.955 119.569,265.548 119.488,266.169 119.488 C 266.791 119.488,267.354 119.400,267.421 119.291 C 267.488 119.183,268.051 119.094,268.673 119.094 C 269.295 119.094,269.887 119.013,269.990 118.912 C 270.093 118.812,270.664 118.709,271.260 118.684 C 271.855 118.659,272.431 118.572,272.539 118.493 C 272.648 118.413,273.179 118.299,273.720 118.240 C 274.262 118.180,275.260 118.072,275.938 117.999 C 276.617 117.925,277.220 117.788,277.279 117.693 C 277.337 117.598,277.817 117.520,278.345 117.520 C 278.873 117.520,279.517 117.439,279.777 117.340 C 280.037 117.242,280.640 117.139,281.119 117.113 C 281.597 117.086,282.184 116.946,282.424 116.800 C 282.664 116.655,283.350 116.535,283.950 116.535 C 284.549 116.535,285.039 116.447,285.039 116.339 C 285.039 116.229,285.560 116.142,286.209 116.142 C 286.852 116.142,287.433 116.053,287.500 115.945 C 287.567 115.837,288.098 115.748,288.681 115.748 C 289.264 115.748,289.795 115.659,289.862 115.551 C 289.929 115.443,290.448 115.354,291.016 115.354 C 291.583 115.354,292.131 115.271,292.234 115.169 C 292.337 115.067,292.935 114.963,293.563 114.938 C 294.190 114.913,294.749 114.819,294.805 114.730 C 294.860 114.640,295.387 114.567,295.976 114.567 C 296.565 114.567,297.047 114.478,297.047 114.370 C 297.047 114.261,297.572 114.173,298.228 114.173 C 298.885 114.173,299.409 114.086,299.409 113.976 C 299.409 113.868,299.847 113.780,300.382 113.780 C 300.917 113.780,301.409 113.691,301.476 113.583 C 301.543 113.474,302.030 113.386,302.559 113.386 C 303.088 113.386,303.575 113.297,303.642 113.189 C 303.709 113.081,304.112 112.992,304.539 112.992 C 304.966 112.992,305.315 112.904,305.315 112.795 C 305.315 112.687,305.714 112.598,306.201 112.598 C 306.688 112.598,307.087 112.510,307.087 112.402 C 307.087 112.293,307.441 112.205,307.874 112.205 C 308.307 112.205,308.661 112.116,308.661 112.008 C 308.661 111.900,308.966 111.811,309.339 111.811 C 309.711 111.811,310.071 111.722,310.138 111.614 C 310.205 111.506,310.515 111.417,310.827 111.417 C 311.139 111.417,311.449 111.329,311.516 111.220 C 311.583 111.112,311.942 111.024,312.315 111.024 C 312.687 111.024,312.992 110.935,312.992 110.827 C 312.992 110.719,313.250 110.630,313.566 110.630 C 313.882 110.630,314.170 110.542,314.206 110.435 C 314.242 110.327,314.515 110.220,314.813 110.195 C 315.111 110.170,315.354 110.081,315.354 109.996 C 315.354 109.912,315.526 109.843,315.736 109.843 C 315.947 109.843,316.173 109.754,316.240 109.646 C 316.307 109.537,316.578 109.449,316.842 109.449 C 317.107 109.449,317.323 109.360,317.323 109.252 C 317.323 109.144,317.589 109.055,317.913 109.055 C 318.238 109.055,318.504 108.967,318.504 108.858 C 318.504 108.750,318.676 108.661,318.886 108.661 C 319.096 108.661,319.323 108.573,319.390 108.465 C 319.457 108.356,319.772 108.268,320.090 108.268 C 320.409 108.268,320.669 108.179,320.669 108.071 C 320.669 107.963,320.891 107.874,321.161 107.874 C 321.432 107.874,321.654 107.785,321.654 107.677 C 321.654 107.569,321.875 107.480,322.146 107.480 C 322.416 107.480,322.638 107.392,322.638 107.283 C 322.638 107.175,322.754 107.087,322.896 107.087 C 323.138 107.087,324.473 106.523,325.243 106.095 C 325.431 105.991,325.719 105.906,325.883 105.906 C 326.047 105.906,326.181 105.817,326.181 105.709 C 326.181 105.600,326.317 105.512,326.483 105.512 C 326.861 105.512,328.815 104.538,328.904 104.306 C 328.940 104.211,329.140 104.134,329.347 104.134 C 329.555 104.134,329.724 104.045,329.724 103.937 C 329.724 103.829,329.902 103.740,330.118 103.740 C 330.335 103.740,330.512 103.652,330.512 103.543 C 330.512 103.435,330.636 103.346,330.788 103.346 C 331.116 103.346,332.747 102.526,332.841 102.313 C 332.877 102.232,333.028 102.165,333.177 102.165 C 333.326 102.165,333.898 101.900,334.449 101.575 C 335.000 101.250,335.535 100.984,335.639 100.984 C 335.742 100.984,335.827 100.896,335.827 100.787 C 335.827 100.679,335.997 100.591,336.204 100.591 C 336.412 100.591,336.611 100.524,336.647 100.443 C 336.683 100.362,337.133 100.082,337.648 99.821 C 338.162 99.561,338.583 99.273,338.583 99.182 C 338.583 99.090,338.760 99.016,338.976 99.016 C 339.193 99.016,339.370 98.927,339.370 98.819 C 339.370 98.711,339.486 98.622,339.628 98.622 C 339.770 98.622,340.077 98.445,340.309 98.228 C 340.541 98.012,340.849 97.835,340.992 97.835 C 341.135 97.835,341.379 97.657,341.535 97.441 C 341.692 97.224,341.936 97.047,342.079 97.047 C 342.222 97.047,342.529 96.870,342.762 96.654 C 342.994 96.437,343.301 96.260,343.443 96.260 C 343.585 96.260,343.701 96.171,343.701 96.063 C 343.701 95.955,343.834 95.866,343.996 95.866 C 344.158 95.866,344.291 95.778,344.291 95.669 C 344.291 95.561,344.408 95.472,344.549 95.472 C 344.691 95.472,344.998 95.295,345.230 95.079 C 345.463 94.862,345.728 94.685,345.821 94.685 C 345.913 94.685,346.160 94.528,346.370 94.335 C 346.580 94.143,347.062 93.769,347.441 93.504 C 348.374 92.852,348.539 92.718,349.315 91.978 C 349.685 91.626,350.060 91.339,350.149 91.339 C 350.238 91.339,350.703 90.984,351.181 90.551 C 351.660 90.118,352.128 89.764,352.222 89.764 C 352.316 89.764,352.734 89.409,353.150 88.976 C 353.566 88.543,353.990 88.189,354.092 88.189 C 354.194 88.189,354.772 87.724,355.376 87.156 C 355.979 86.587,356.744 85.880,357.075 85.584 C 357.874 84.870,357.885 84.252,357.098 84.252 C 356.780 84.252,356.465 84.341,356.398 84.449 M319.980 118.898 C 319.913 119.006,319.249 119.094,318.504 119.094 C 317.759 119.094,317.094 119.183,317.028 119.291 C 316.961 119.400,316.252 119.488,315.453 119.488 C 314.654 119.488,313.945 119.577,313.878 119.685 C 313.811 119.793,313.147 119.882,312.402 119.882 C 311.656 119.882,310.992 119.970,310.925 120.079 C 310.858 120.187,310.194 120.276,309.449 120.276 C 308.704 120.276,308.039 120.364,307.972 120.472 C 307.906 120.581,307.236 120.669,306.484 120.669 C 305.733 120.669,305.118 120.751,305.118 120.852 C 305.118 120.952,304.387 121.083,303.494 121.142 C 300.177 121.362,299.104 121.477,298.720 121.654 C 298.504 121.753,297.751 121.882,297.047 121.939 C 296.344 121.996,295.148 122.092,294.390 122.151 C 293.632 122.211,292.835 122.341,292.618 122.441 C 292.402 122.541,291.649 122.667,290.945 122.721 C 290.241 122.776,288.957 122.914,288.091 123.028 C 287.224 123.143,285.851 123.321,285.039 123.425 C 284.227 123.529,282.854 123.706,281.988 123.819 C 279.807 124.103,277.726 124.368,275.984 124.584 C 275.172 124.685,274.286 124.817,274.016 124.878 C 273.745 124.939,272.992 125.041,272.343 125.104 C 271.086 125.227,269.141 125.460,266.732 125.776 C 265.920 125.883,264.857 126.019,264.370 126.078 C 263.883 126.137,262.908 126.274,262.205 126.383 C 260.810 126.600,259.928 126.712,257.677 126.959 C 256.865 127.048,255.935 127.172,255.610 127.235 C 255.285 127.298,254.542 127.391,253.959 127.442 C 253.375 127.493,252.804 127.629,252.689 127.744 C 252.574 127.859,251.834 127.953,251.043 127.953 C 250.217 127.953,249.606 128.036,249.606 128.150 C 249.606 128.263,248.983 128.346,248.130 128.346 C 247.277 128.346,246.654 128.430,246.654 128.543 C 246.654 128.657,246.034 128.740,245.189 128.740 C 244.383 128.740,243.669 128.829,243.602 128.937 C 243.535 129.045,242.884 129.134,242.154 129.134 C 241.424 129.134,240.743 129.216,240.640 129.317 C 240.537 129.417,239.877 129.519,239.173 129.543 C 238.469 129.566,237.802 129.656,237.691 129.742 C 237.579 129.827,236.896 129.917,236.173 129.940 C 235.449 129.964,234.904 130.058,234.960 130.149 C 235.016 130.240,234.398 130.315,233.586 130.315 C 232.774 130.315,232.055 130.404,231.988 130.512 C 231.921 130.620,231.737 130.709,231.579 130.709 C 231.184 130.709,228.714 133.238,227.162 135.230 C 226.785 135.714,226.056 136.528,225.541 137.038 C 223.774 138.793,223.035 138.725,238.189 138.190 C 241.275 138.081,246.349 137.944,249.465 137.885 C 252.581 137.826,255.088 137.708,255.035 137.623 C 254.982 137.537,257.393 137.446,260.393 137.419 C 263.392 137.393,266.156 137.325,266.535 137.267 C 266.914 137.210,269.350 137.089,271.949 136.998 C 274.547 136.907,277.160 136.784,277.756 136.724 C 278.351 136.665,279.902 136.569,281.201 136.511 C 285.867 136.302,287.300 136.189,287.403 136.021 C 287.461 135.927,288.105 135.831,288.833 135.808 C 289.561 135.784,290.157 135.690,290.157 135.599 C 290.157 135.508,290.600 135.433,291.142 135.433 C 291.683 135.433,292.126 135.344,292.126 135.236 C 292.126 135.128,292.475 135.039,292.902 135.039 C 293.328 135.039,293.732 134.951,293.799 134.843 C 293.866 134.734,294.138 134.646,294.404 134.646 C 294.670 134.646,295.041 134.568,295.229 134.473 C 295.803 134.183,296.953 133.858,297.406 133.858 C 297.642 133.858,297.835 133.770,297.835 133.661 C 297.835 133.553,298.100 133.465,298.425 133.465 C 298.750 133.465,299.016 133.376,299.016 133.268 C 299.016 133.159,299.232 133.071,299.496 133.071 C 299.761 133.071,300.032 132.982,300.098 132.874 C 300.165 132.766,300.389 132.677,300.596 132.677 C 300.803 132.677,301.263 132.515,301.618 132.317 C 301.973 132.119,302.685 131.834,303.199 131.684 C 303.713 131.533,304.134 131.341,304.134 131.256 C 304.134 131.172,304.311 131.102,304.528 131.102 C 304.744 131.102,304.921 131.014,304.921 130.906 C 304.921 130.797,305.057 130.709,305.222 130.709 C 305.642 130.709,310.673 128.176,310.794 127.904 C 310.830 127.822,310.985 127.756,311.138 127.756 C 311.292 127.756,311.417 127.667,311.417 127.559 C 311.417 127.451,311.594 127.362,311.811 127.362 C 312.028 127.362,312.205 127.274,312.205 127.165 C 312.205 127.057,312.341 126.969,312.508 126.969 C 312.675 126.969,313.002 126.791,313.234 126.575 C 313.467 126.358,313.773 126.181,313.915 126.181 C 314.057 126.181,314.173 126.093,314.173 125.984 C 314.173 125.876,314.289 125.787,314.431 125.787 C 314.573 125.787,314.880 125.610,315.112 125.394 C 315.345 125.177,315.631 125.000,315.749 125.000 C 315.866 125.000,316.184 124.779,316.455 124.508 C 316.726 124.237,317.028 124.016,317.126 124.016 C 317.224 124.016,317.526 123.794,317.797 123.524 C 318.068 123.253,318.426 123.031,318.593 123.031 C 318.761 123.031,318.898 122.943,318.898 122.835 C 318.898 122.726,319.011 122.638,319.149 122.638 C 319.288 122.638,319.529 122.461,319.685 122.244 C 319.841 122.028,320.071 121.850,320.197 121.850 C 320.322 121.850,320.790 121.496,321.236 121.063 C 321.683 120.630,322.125 120.276,322.220 120.276 C 322.501 120.276,322.914 119.677,322.982 119.171 C 323.050 118.666,320.279 118.414,319.980 118.898 " stroke="none" fill="#eb1c24" fill-rule="evenodd"></path></g></svg>