<?xml version="1.0" encoding="UTF-8"?>
<svg width="400px" height="55px" viewBox="0 0 400 55" version="1.1" xmlns="http://www.w3.org/2000/svg" xmlns:xlink="http://www.w3.org/1999/xlink">
    <!-- Generator: Sketch 52.4 (67378) - http://www.bohemiancoding.com/sketch -->
    <title>SunTegra-R-OrangeGray</title>
    <desc>Created with Sketch.</desc>
    <defs>
        <polygon id="path-1" points="0 0.314032258 399.592815 0.314032258 399.592815 54.8935484 0 54.8935484"></polygon>
    </defs>
    <g id="Page-1" stroke="none" stroke-width="1" fill="none" fill-rule="evenodd">
        <g id="SunTegra-R-OrangeGray">
            <g id="Group-4">
                <mask id="mask-2" fill="white">
                    <use xlink:href="#path-1"></use>
                </mask>
                <g id="Clip-2"></g>
                <path d="M148.787829,53.7917742 L120.874874,19.3883871 L120.874874,53.7917742 L112.86189,53.7917742 L112.86189,12.5470968 L124.816005,12.5470968 L152.728959,46.9522581 L152.728959,12.5470968 L160.740176,12.5470968 L160.740176,53.7917742 L148.787829,53.7917742 Z M82.475793,55 C67.6528325,55 58.5710973,48.7619355 58.5710973,40.2458065 L58.5710973,12.5470968 L66.5840813,12.5470968 L66.5840813,38.6366129 C66.5840813,44.5375806 71.9931989,47.7577419 82.475793,47.7577419 C92.8930255,47.7577419 98.302143,44.4701613 98.302143,38.6366129 L98.302143,12.5470968 L106.315127,12.5470968 L106.315127,40.2458065 C106.315127,48.7619355 97.2333918,55 82.475793,55 Z M25.4415775,7.94129032 C15.423581,7.94129032 10.1504863,10.6770968 10.1504863,14.9937097 C10.1504863,17.3693548 11.5513453,18.9519355 14.3565963,20.0306452 C19.6314575,22.046129 27.5790799,21.3985484 37.3939253,22.7664516 C49.4151679,24.42 55.1563932,28.8820968 55.1563932,37.5898387 C55.1563932,48.5277419 45.9421682,54.9325806 28.7803208,54.9325806 C16.4940987,54.9325806 7.011361,52.1258065 0,46.153871 L4.40749451,39.8927419 C12.1537323,45.0024194 20.03246,47.3762903 28.847449,47.3762903 C40.3316662,47.3762903 46.477427,43.7782258 46.477427,38.1664516 C46.477427,30.753871 38.2630585,30.753871 24.038952,29.746129 C9.14886335,28.6656452 1.66937167,26.1480645 1.66937167,16.1451613 C1.66937167,6.43145161 10.3501043,0.314032258 26.042198,0.314032258 C36.4594305,0.314032258 45.2072914,2.90435484 52.2186524,8.01403226 L47.3430272,13.8422581 C40.1320482,9.88403226 33.053559,7.94129032 25.4415775,7.94129032 Z" id="Fill-1" fill="#EC952D" mask="url(#mask-2)"></path>
                <path d="M372.282247,19.3883871 L362.465635,37.6306452 L382.031731,37.6306452 L372.282247,19.3883871 Z M390.779592,53.7917742 L386.038223,44.9403226 L358.459143,44.9403226 L353.717775,53.7917742 L344.902786,53.7917742 L367.272366,12.5470968 L377.223234,12.5470968 L399.592815,53.7917742 L390.779592,53.7917742 Z M336.796175,25.7595161 C336.796175,21.6682258 334.324799,19.8585484 329.049938,19.8585484 L305.546244,19.8585484 L305.546244,31.3251613 L329.518068,31.3251613 C334.324799,31.3251613 336.796175,29.3806452 336.796175,25.7595161 Z M336.661919,53.7917742 L325.912579,38.6366129 L305.546244,38.6366129 L305.546244,53.7917742 L297.531494,53.7917742 L297.531494,12.5470968 L330.719309,12.5470968 C339.468937,12.5470968 345.008777,17.7117742 345.008777,25.6246774 C345.008777,32.2637097 341.472183,36.6903226 334.792929,38.1664516 L345.877911,53.7917742 L336.661919,53.7917742 Z M289.69163,32.4659677 C289.69163,45.8114516 279.207269,55 262.914555,55 C255.636448,55 249.158579,52.9206452 244.5497,49.5674194 C238.808475,45.3430645 235.936096,39.8430645 235.936096,33.0691935 C235.936096,26.4301613 238.808475,20.9301613 244.5497,16.7058065 C249.292836,13.2177419 255.903194,11.1383871 263.380919,11.1383871 C272.529783,11.1383871 279.875018,14.2237097 285.951884,20.7296774 L278.407031,24.4856452 C274.133793,20.3943548 269.056783,18.4480645 262.914555,18.4480645 C251.962064,18.4480645 244.215826,24.7535484 244.215826,33.0691935 C244.215826,41.6545161 251.628189,47.7577419 262.914555,47.7577419 C271.194285,47.7577419 277.004405,44.4701613 279.6754,38.5017742 L261.178055,38.5017742 L261.178055,31.1920968 L289.69163,31.1920968 L289.69163,32.4659677 Z M190.036324,53.7917742 L190.036324,12.5470968 L232.706877,12.5470968 L232.706877,19.8585484 L198.049308,19.8585484 L198.049308,28.71 L222.155388,28.71 L222.155388,36.0196774 L198.049308,36.0196774 L198.049308,46.4820968 L234.241993,46.4820968 L234.241993,53.7917742 L190.036324,53.7917742 Z M178.887748,8.82129032 L178.887748,53.7917742 L170.872997,53.7917742 L170.872997,8.82129032 L147.770307,8.82129032 L147.770307,1.5116129 L201.992205,1.5116129 L201.992205,8.82129032 L178.887748,8.82129032 Z" id="Fill-3" fill="#777776" mask="url(#mask-2)"></path>
            </g>
            <path d="M387.811411,14.6853526 L387.811411,16.1338156 L388.408559,16.1338156 C388.766122,16.1338156 389.025672,16.0777577 389.192656,15.9620253 C389.357824,15.8462929 389.441316,15.6690778 389.441316,15.4285714 C389.441316,15.1735986 389.352379,14.9855335 389.174505,14.8643761 C388.994817,14.7450271 388.718931,14.6853526 388.346848,14.6853526 L387.811411,14.6853526 Z M386.595336,13.9186257 L388.557392,13.9186257 C389.270702,13.9186257 389.804324,14.0379747 390.161886,14.2766727 C390.517634,14.517179 390.697323,14.8770344 390.697323,15.3544304 C390.697323,15.6853526 390.599311,15.9674503 390.403286,16.2025316 C390.209077,16.437613 389.942267,16.596745 389.602854,16.6799277 L390.720918,18.9077758 L389.365084,18.9077758 L388.408559,16.8643761 L387.811411,16.8643761 L387.811411,18.9077758 L386.595336,18.9077758 L386.595336,13.9186257 Z M388.47027,12.7432188 C387.95843,12.7432188 387.481074,12.8318264 387.041835,13.0090416 C386.602596,13.1862568 386.205102,13.4520796 385.849355,13.8065099 C385.484532,14.1717902 385.201386,14.5858951 385.005362,15.0506329 C384.803893,15.517179 384.704066,15.9981917 384.704066,16.4936709 C384.704066,16.9981917 384.798448,17.4737794 384.985397,17.9240506 C385.17053,18.3743219 385.439156,18.7721519 385.787644,19.119349 C386.152466,19.4810127 386.56448,19.7631103 387.023685,19.960217 C387.482889,20.159132 387.96206,20.2585895 388.45938,20.2585895 C388.947626,20.2585895 389.421351,20.1627486 389.87511,19.9728752 C390.330685,19.7830018 390.749959,19.5099458 391.131117,19.1555154 C391.477789,18.8173599 391.750045,18.4231465 391.944254,17.9746835 C392.138463,17.5244123 392.236475,17.0560579 392.236475,16.5678119 C392.236475,16.0307414 392.147538,15.5388788 391.97148,15.0886076 C391.789976,14.6383363 391.52498,14.2332731 391.167418,13.8698011 C390.802595,13.4972875 390.392396,13.2169982 389.938637,13.0271248 C389.483062,12.8372514 388.993002,12.7432188 388.47027,12.7432188 Z M388.45938,12 C389.081938,12 389.670011,12.1139241 390.223598,12.3453888 C390.778999,12.5768535 391.270875,12.9113924 391.702854,13.3490054 C392.116683,13.7703436 392.434315,14.2513562 392.653934,14.7920434 C392.871739,15.3309222 392.982456,15.9041591 392.982456,16.5063291 C392.982456,17.1175407 392.869924,17.6980108 392.641229,18.2459313 C392.412534,18.79566 392.084012,19.2766727 391.653848,19.6889693 C391.221869,20.1103074 390.728178,20.4339964 390.172777,20.6600362 C389.617375,20.8860759 389.047453,21 388.45938,21 C387.853157,21 387.27779,20.8842676 386.724203,20.6473779 C386.174247,20.4122966 385.684186,20.0759494 385.252207,19.6383363 C384.829303,19.2169982 384.509856,18.7359855 384.290237,18.1952984 C384.070617,17.6546112 383.9599,17.0922242 383.9599,16.5063291 C383.9599,16.0940325 384.016166,15.6925859 384.128698,15.3056058 C384.239416,14.9168174 384.402769,14.5388788 384.618759,14.1663653 C385.025327,13.4810127 385.564394,12.9475588 386.234143,12.5696203 C386.905707,12.1898734 387.648058,12 388.45938,12 Z" id="Fill-5" fill="#777776"></path>
        </g>
    </g>
</svg>